<svg width="136" height="82" viewBox="0 0 136 82" fill="none" xmlns="http://www.w3.org/2000/svg">
<path d="M49.6458 69.985C34.4618 68.4773 13.233 59.5174 4.55476 54.6862L4.50707 54.6602C3.0519 53.8667 1.86353 53.2187 1.19977 54.0152C0.662975 54.6594 1.33397 55.6256 1.73657 56.0282C2.09444 56.2966 3.26645 57.236 5.09156 58.8464C7.37296 60.8594 22.6717 72.4005 37.2995 76.5607C51.9272 80.7209 62.1264 81.5261 77.1568 80.7209C92.1871 79.9157 109.901 72.2663 116.075 68.643C122.248 65.0196 124.395 63.5434 123.053 61.7988C121.711 60.0542 118.624 61.7988 116.075 62.8724C113.525 63.946 106.278 66.3616 102.655 67.301C99.0313 68.2404 82.3905 71.0585 76.62 71.4612C70.8494 71.8637 68.568 71.8637 49.6458 69.985Z" stroke="#F5B32F"/>
<path d="M128.958 60.0542C128.743 63.1676 126.095 70.656 124.798 74.0109C124.663 74.3602 124.529 75.2188 124.663 75.4872C124.798 75.7556 125.469 75.8898 126.14 75.4872C126.811 75.0846 128.287 73.4742 129.36 72.2664C130.434 71.0586 132.313 67.5694 133.386 64.7512C134.46 61.933 135.265 57.5044 135.265 54.8204C135.265 52.1364 133.789 52.0022 131.373 51.4654C128.958 50.9286 125.603 51.0628 121.443 51.197C117.282 51.3312 111.78 54.2836 110.438 55.4914C109.365 56.4576 110.617 56.9676 111.378 57.1018C111.825 57.0123 113.069 56.8065 114.464 56.6992C115.806 56.4308 122.785 56.0282 124.395 56.1624C126.005 56.2966 129.226 56.1624 128.958 60.0542Z" stroke="#F5B32F"/>
<path d="M35.4207 41.6688C34.5618 41.3468 32.7367 38.1349 31.9315 36.5693C31.6184 36.8824 30.5627 37.8844 28.8449 39.3875C24.9531 42.6082 19.7193 42.8766 16.6327 42.6082C13.5462 42.3398 7.90977 39.2533 6.97038 34.4221C6.03098 29.5909 7.37297 25.8333 8.84917 23.4177C10.3254 21.0021 15.5592 18.8549 17.1695 18.4523C18.7799 18.0497 21.1955 18.3181 23.8795 18.3181C26.0267 18.3181 29.7843 19.1233 31.3947 19.5259C31.3947 18.7654 31.341 16.3856 31.1263 12.9501C30.8579 8.65574 27.2345 7.85054 25.0873 7.31374C22.9401 6.77694 17.8405 7.17954 13.8146 8.65574C9.78857 10.1319 9.52017 9.59513 9.38597 9.46093C9.25177 9.32673 9.25177 8.92414 9.25177 6.77694C9.25177 4.64454 9.51648 4.49749 11.8861 3.18113L11.9358 3.15355C14.3514 1.81156 20.2561 1.00636 25.0873 1.00636C29.9185 1.00636 33.4077 3.15355 35.8233 5.30075C37.7558 7.0185 38.5073 12.0107 38.6415 14.2921C38.731 20.0627 38.9367 31.7918 39.0441 32.5433C39.1783 33.4827 39.7151 35.0931 40.5203 36.7035C41.1644 37.9918 40.8781 38.7612 40.6545 38.9849C40.4755 39.1191 39.8493 39.6022 38.7757 40.461C37.4337 41.5346 36.4943 42.0714 35.4207 41.6688Z" stroke="#F5B32F"/>
<path d="M58.6372 33.7511L50.9879 3.82455C50.6658 2.56449 49.6011 2.13646 49.1091 2.07995H44.0095C42.9359 2.07995 43.0253 3.24302 43.2043 3.82455C46.5593 15.0079 53.4034 37.8307 53.9402 39.6558C54.477 41.481 56.0427 41.7583 56.7584 41.6688H60.516C62.0191 41.6688 62.7527 40.5058 62.9316 39.9243L69.91 10.8029C72.1019 19.839 76.5663 38.2602 76.8884 39.6558C77.2105 41.0515 78.5435 41.5794 79.1698 41.6688H83.5984C85.1014 41.6688 85.7456 40.5058 85.8798 39.9243C89.5031 28.562 96.8304 5.48863 97.1525 4.09295C97.4746 2.69727 96.4815 2.16942 95.9447 2.07995H91.2477C90.1741 2.07995 89.5479 3.42195 89.3689 4.09295L81.4512 33.7511C79.2592 24.4466 74.7949 5.48863 74.4728 4.09295C74.1507 2.69727 72.9071 2.16942 72.3256 2.07995H67.6286C66.4476 2.07995 65.884 3.24302 65.7498 3.82455L58.6372 33.7511Z" stroke="#F5B32F"/>
<path d="M100.373 34.8247V37.9113C100.373 39.1459 101.179 39.8572 101.581 40.0584C102.834 40.6847 106.359 42.0714 110.438 42.6082C115.538 43.2792 121.443 41.9372 124.798 39.9243C128.153 37.9113 130.702 31.3355 129.36 27.1753C128.018 23.0151 123.858 20.8679 122.919 20.4653C121.979 20.0627 113.927 17.5129 110.707 16.1709C107.486 14.8289 108.023 10.4003 109.499 8.78994C110.975 7.17954 114.867 6.91114 117.282 6.91114C119.698 6.91114 123.992 8.25314 125.737 8.92413C127.133 9.46093 127.482 8.43207 127.482 7.85054V5.70334C127.482 4.09295 126.14 3.15355 125.469 2.88515C124.977 2.66149 123.509 2.07995 121.577 1.54316C119.161 0.872158 113.256 0.872158 111.243 1.27476C109.23 1.67736 106.278 2.88515 103.997 5.03235C101.715 7.17954 100.776 10.5345 100.776 12.5475C100.776 14.5605 102.118 17.7813 103.46 19.5259C104.802 21.2705 108.828 23.1493 110.17 23.5519C111.512 23.9545 116.746 25.5649 119.43 26.7727C122.114 27.9805 122.248 29.7251 122.248 32.1407C122.248 34.5563 118.49 36.1667 117.685 36.4351C116.88 36.7035 114.33 36.7035 111.646 36.7035C108.962 36.7035 104.668 35.2273 102.655 34.4221C101.044 33.7779 100.463 34.4221 100.373 34.8247Z" stroke="#F5B32F"/>
</svg>
