<svg width="72" height="80" viewBox="0 0 72 80" fill="none" xmlns="http://www.w3.org/2000/svg">
<path d="M46.2732 25.2031L45.6927 32.8908H26.0625H25.5367L25.5631 33.416L26.0006 42.1031L26.0245 42.578H26.5H45.1997L44.6015 51.4774L36.1093 54.3627L27.642 51.4808L27.4371 46.4018L27.4178 45.922H26.9375H18.1875H17.6592L17.6882 46.4494L18.3445 58.3866L18.3633 58.7282L18.6885 58.8345L35.9539 64.4753L36.1092 64.526L36.2645 64.4753L53.5305 58.8345L53.8535 58.729L53.8743 58.3898L55.4054 33.4222L55.4055 33.4214L56.499 16.0627L56.5325 15.5312H56H16H15.4607L15.5014 16.069L16.1577 24.7409L16.1926 25.2031H16.6562H46.2732ZM8.45991 71.6115L0.558632 0.5H71.4414L63.5401 71.6113L35.9689 79.48L8.45991 71.6115Z" stroke="#F5B32F"/>
</svg>
