<svg width="80" height="80" viewBox="0 0 80 80" fill="none" xmlns="http://www.w3.org/2000/svg">
<path d="M64.5416 18.3104L64.5709 18.3624L64.6196 18.4109L79.4998 33.2162V64.548H68.3989L20.0222 16.4156L20.3061 16.4144C21.2571 16.4107 22.6215 16.4056 24.2755 16.3999C27.5834 16.3885 32.0493 16.3748 36.6813 16.3657C45.951 16.3474 55.8696 16.3475 58.518 16.4203C61.1152 16.4917 62.6442 17.0122 63.5061 17.4823C63.9372 17.7174 64.2053 17.9419 64.3596 18.0965C64.437 18.174 64.4865 18.2347 64.514 18.2712C64.5278 18.2895 64.5361 18.3019 64.5397 18.3074C64.54 18.3078 64.5398 18.3075 64.5401 18.3078C64.5412 18.3096 64.542 18.311 64.5416 18.3104ZM10.3699 21.3429C10.5245 21.0001 10.6689 20.6797 10.8017 20.3849V57.4372L3.07265 49.7475L3.07137 49.7462L3.06573 49.7402C3.05921 49.7334 3.04893 49.7224 3.03521 49.7075C3.00777 49.6778 2.9666 49.6324 2.91423 49.5724C2.80943 49.4525 2.66012 49.2746 2.4864 49.0477C2.13808 48.5927 1.69613 47.9461 1.31728 47.1774C0.554151 45.629 0.0854686 43.6705 1.01652 41.7725L0.567714 41.5524L1.01653 41.7725C2.0503 39.665 4.73771 33.7823 7.16221 28.4367C8.37547 25.7616 9.52435 23.2179 10.3699 21.3429ZM59.4643 13.2845L17.5648 13.2846L39.4095 1.42945L39.4371 1.42042C39.4825 1.40571 39.5503 1.38413 39.6378 1.35724C39.8129 1.30345 40.0668 1.22857 40.3786 1.14522C41.0034 0.978201 41.8552 0.778748 42.769 0.646174C43.6865 0.513076 44.6457 0.450565 45.4923 0.546041C46.3471 0.642448 47.0195 0.892141 47.4417 1.3199C48.5196 2.41189 51.7421 5.61812 54.6925 8.54866C56.1682 10.0145 57.5768 11.4123 58.6163 12.4435L59.4643 13.2845ZM15.2426 16.275L65.9074 66.684H20.0952L15.9801 62.5898C15.966 62.5694 15.9459 62.5395 15.9203 62.5008C15.8651 62.4171 15.7849 62.292 15.6881 62.1307C15.4944 61.8078 15.235 61.3415 14.9757 60.7727C14.4542 59.6287 13.947 58.101 13.9484 56.5048C13.9499 54.8086 13.9499 44.6623 13.9495 34.9406L13.9488 21.7848L13.9485 17.5253L13.9484 16.339L13.9484 16.0273L13.9484 15.9475L13.9484 15.9273L13.9484 15.9222V15.921C13.9484 15.9207 13.9484 15.9206 13.7144 15.9206H13.9484V14.9874L15.2426 16.275ZM32.9763 79.5L23.2473 69.82H66.6191V79.5H32.9763Z" stroke="#F5B32F"/>
</svg>
