<svg width="95" height="80" viewBox="0 0 95 80" fill="none" xmlns="http://www.w3.org/2000/svg">
<path d="M69.7102 20.2076L69.7104 20.2075L69.7105 20.2074L72.0114 18.5148L73.6773 20.8315L73.6834 20.8408L73.7166 20.8913C73.7461 20.9366 73.7901 21.0046 73.8467 21.0943C73.9601 21.2736 74.1242 21.5391 74.3251 21.8807C74.7272 22.5639 75.276 23.5503 75.8603 24.7584C77.0308 27.1786 78.3343 30.4696 78.8942 33.9849L78.9568 34.3777L79.3536 34.405C82.9483 34.6531 86.1186 35.7317 88.3951 36.7529C89.532 37.2629 90.4423 37.7569 91.0666 38.1223C91.3786 38.3049 91.619 38.4552 91.7802 38.5591C91.8608 38.611 91.9215 38.6513 91.9616 38.6782L92.0002 38.7044L93.6384 40.1025L92.6832 42.0567L92.6773 42.0667C92.668 42.0827 92.6533 42.1075 92.6334 42.1405C92.5934 42.2065 92.5321 42.3053 92.4492 42.4326C92.2833 42.6873 92.031 43.0556 91.6893 43.5025C91.0058 44.3966 89.9669 45.603 88.551 46.8429C85.7205 49.3215 81.3899 51.9295 75.3732 52.4575L75.1005 52.4814L74.9737 52.724C71.2045 59.939 67.5792 66.5728 61.7145 71.3708C55.4184 76.5219 46.8064 79.5 34.2969 79.5H34.2855C23.8838 79.4663 14.6326 74.6147 8.43357 66.3663L8.28356 66.1667H8.13022V66.1587V65.9969L8.03545 65.8658C3.76437 59.9566 0.988701 52.413 0.629847 43.4442C0.629839 43.444 0.629831 43.4438 0.629823 43.4436L0.519152 40.5H60.664H61.2557L61.157 39.9166C61.0892 39.5158 61.0212 39.2041 60.9593 38.9204L60.9568 38.9089C60.8942 38.6219 60.8388 38.3667 60.7913 38.0615C60.6968 37.454 60.6302 36.6263 60.6302 35C60.6302 30.5309 63.0659 26.9602 65.2872 24.3894C66.3895 23.1136 67.4982 22.0657 68.3317 21.3366C68.7482 20.9723 69.0949 20.6885 69.3367 20.4964C69.4575 20.4004 69.5521 20.3274 69.6158 20.2787C69.6477 20.2544 69.6719 20.2362 69.6878 20.2243L69.7054 20.2112L69.7095 20.2082L69.7102 20.2076ZM70.5916 27.97L70.2503 27.3665L69.7855 27.8809C69.7653 27.9033 69.7544 27.914 69.7492 27.919C69.744 27.9239 69.7413 27.9262 69.728 27.9376L69.7265 27.939C69.7105 27.9527 69.6873 27.9728 69.6586 28.0013C69.631 28.0287 69.6025 28.0596 69.5698 28.0974L69.5697 28.0976C68.6865 29.1197 67.8741 30.2947 67.2802 31.4805C66.6897 32.6596 66.2969 33.8856 66.2969 35C66.2969 37.7775 66.464 39.6219 66.6342 40.7805C66.7193 41.36 66.8053 41.7686 66.8718 42.0372C66.9051 42.1716 66.9335 42.271 66.9545 42.3393C66.965 42.3734 66.9737 42.3998 66.9802 42.419L66.9864 42.4363L66.9883 42.4422L66.9886 42.4429L68.2261 46.1667H7.47396H6.90926L6.97763 46.7272C7.6179 51.9762 9.16548 56.4414 11.2955 60.2443L11.4387 60.5H11.7318H26.2969V66.1667H16.836H15.5588L16.4965 67.0338C21.2604 71.4389 27.4177 73.8112 34.3083 73.8333H34.31C45.9558 73.8311 52.8965 71.2696 58.1291 66.9888L57.8124 66.6018L58.1291 66.9887C63.3413 62.7241 66.9514 56.4366 70.939 48.7057L71.7365 47.1667H73.4636C77.0979 47.1667 79.7144 46.4591 81.6487 45.4521C83.5842 44.4445 84.8052 43.1534 85.6687 42.0376L86.0302 41.5706L85.51 41.2911C83.4685 40.1942 80.6384 39.0844 77.1061 39.4768L77.1053 39.4769L73.9636 39.8311V36.6667C73.9636 33.6709 72.5216 31.2402 71.2484 29.094C71.021 28.7108 70.799 28.3366 70.5916 27.97ZM32.9636 12.8333H20.6302V0.5H32.9636V12.8333ZM52.9636 12.8333H40.6302V0.5H52.9636V12.8333ZM0.630222 32.8333V20.5H12.9636V32.8333H0.630222ZM20.6302 32.8333V20.5H32.9636V32.8333H20.6302ZM40.6302 32.8333V20.5H52.9636V32.8333H40.6302ZM33.9636 56.6667C33.9636 55.1019 35.2321 53.8333 36.7969 53.8333C38.3616 53.8333 39.6302 55.1019 39.6302 56.6667C39.6302 58.2314 38.3616 59.5 36.7969 59.5C35.2321 59.5 33.9636 58.2314 33.9636 56.6667Z" stroke="#F5B32F"/>
</svg>
