<svg width="134" height="100" viewBox="0 0 134 100" fill="none" xmlns="http://www.w3.org/2000/svg">
<path d="M2.75603 19.7592L2.75601 19.7592C2.08417 19.1834 1.5654 18.0697 1.1966 16.6997C0.837796 15.3668 0.644206 13.8824 0.557467 12.6401C1.18696 5.83139 6.91563 0.5 13.8889 0.5H119.444C126.459 0.5 132.213 5.89403 132.786 12.7599C132.362 17.2372 130.207 19.982 129.207 20.7855C111.959 33.7504 76.3661 60.5033 71.9223 63.8363C67.7343 66.9769 62.9491 65.1635 61.0581 63.832C42.4069 49.8143 4.68403 21.4118 2.75603 19.7592ZM75.9714 72.638L75.9825 72.6306L75.9933 72.6226L132.833 30.1642V86.111C132.833 93.5052 126.839 99.5 119.444 99.5H13.8888C6.49446 99.5 0.5 93.5052 0.5 86.111V30.2532C17.7757 43.2063 50.6435 67.8015 57.3465 72.6278C64.5377 77.8052 72.7686 74.7736 75.9714 72.638Z" stroke="#F5B32F"/>
</svg>
