<svg width="150" height="35" viewBox="0 0 150 35" fill="none" xmlns="http://www.w3.org/2000/svg">
<path d="M78.8982 33.7811L83.9727 2.38243H89.5218L87.6735 13.985L87.5813 14.5637H88.1673H88.3521H88.6383L88.7833 14.3168C89.1486 13.6946 89.6478 13.0569 90.2876 12.4047C90.9032 11.7771 91.669 11.2429 92.5931 10.8059C93.4832 10.385 94.5494 10.1657 95.806 10.1657C97.447 10.1657 98.8606 10.6002 100.067 11.4575C101.259 12.3041 102.14 13.5894 102.69 15.3589C103.234 17.1101 103.303 19.3431 102.859 22.0832L102.858 22.0847C102.435 24.7456 101.66 26.9649 100.548 28.7576C99.4279 30.5624 98.1014 31.9082 96.5747 32.815L96.8301 33.2449L96.5747 32.8151C95.042 33.7256 93.428 34.1767 91.7248 34.1767C90.5038 34.1767 89.5499 33.9687 88.8337 33.5869L88.5985 34.0281L88.8337 33.5869C88.0825 33.1864 87.5128 32.6908 87.1074 32.106L78.8982 33.7811ZM78.8982 33.7811H84.352L84.9013 30.3114L84.9681 29.8896H85.3952H85.7186H86.0945L86.1989 30.2507C86.377 30.8668 86.6772 31.4851 87.1073 32.1059L78.8982 33.7811ZM71.5998 3.46165L71.5999 3.46099C71.6967 2.65599 72.0711 1.96498 72.7546 1.37523C73.4392 0.784547 74.1924 0.5 75.0306 0.5C75.8788 0.5 76.5409 0.782737 77.0602 1.33813C77.5776 1.89157 77.7937 2.54684 77.7062 3.34691C77.6184 4.13815 77.2502 4.82873 76.5645 5.42985C75.8807 6.02924 75.1237 6.31829 74.2761 6.31829C73.4304 6.31829 72.7655 6.03215 72.24 5.46578C71.7156 4.90053 71.5043 4.24621 71.5998 3.46165ZM50.898 15.7501H63.1382L62.3777 20.3977H49.9739H49.548L49.4803 20.8182L47.392 33.7811H41.7367L46.8112 2.38243H66.6803L65.9198 7.03011H52.1301H51.7035L51.6363 7.45131L50.4043 15.1713L50.3119 15.7501H50.898ZM141.404 10.4824L140.805 14.1413L140.71 14.7221H141.299H141.545H141.869L142.001 14.4271C142.649 12.9867 143.505 11.9248 144.559 11.2111C145.625 10.4894 146.763 10.1343 147.983 10.1343C148.511 10.1343 148.993 10.1728 149.429 10.2473L148.611 15.2211C148.385 15.1723 148.132 15.1305 147.855 15.0946C147.308 15.0237 146.786 14.9876 146.289 14.9876C144.741 14.9876 143.365 15.4974 142.176 16.5065L142.176 16.5067C140.984 17.5196 140.246 18.8412 139.96 20.4463L139.958 20.455L137.824 33.7814H132.277L136.057 10.4824H141.404ZM114.191 11.6847L113.948 11.2481L114.191 11.6847C116.001 10.6746 118.021 10.1661 120.262 10.1661C122.283 10.1661 124.004 10.603 125.443 11.4567L125.698 11.0266L125.443 11.4567C126.865 12.2998 127.905 13.5732 128.557 15.3077C129.204 17.0279 129.329 19.2235 128.886 21.9246L128.885 21.9274L128.659 23.3563H112.978H112.559L112.485 23.769L112.454 23.943L112.454 23.943L112.453 23.9533C112.145 25.9243 112.378 27.5262 113.303 28.6306C114.219 29.7249 115.617 30.2254 117.382 30.2254C118.555 30.2254 119.626 29.9715 120.584 29.4534C121.46 28.9801 122.156 28.3018 122.67 27.4302L127.654 27.7724C126.826 29.6354 125.519 31.1464 123.724 32.3118L123.997 32.7311L123.724 32.3118C121.741 33.5999 119.326 34.2561 116.458 34.2561C112.92 34.2561 110.404 33.171 108.8 31.082L108.404 31.3865L108.8 31.082C107.187 28.9813 106.637 26.0893 107.249 22.323C107.65 19.885 108.456 17.7595 109.66 15.9373C110.865 14.1131 112.375 12.6985 114.191 11.6847ZM123.558 20.1798H123.983L124.051 19.7604C124.304 18.2126 124.047 16.871 123.213 15.7978L122.818 16.1045L123.213 15.7978C122.371 14.7133 121.138 14.1966 119.6 14.1966C118.57 14.1966 117.603 14.4477 116.707 14.9483C115.825 15.4411 115.074 16.0963 114.458 16.9101C113.841 17.7252 113.428 18.6155 113.227 19.5777L113.102 20.1798H113.717H123.558ZM97.1467 22.2107L97.147 22.2088C97.4844 20.0437 97.3406 18.2193 96.6494 16.7817L96.1988 16.9983L96.6494 16.7816C96.2956 16.046 95.7914 15.4735 95.1317 15.0892C94.4754 14.7067 93.6965 14.5288 92.8183 14.5288C91.0799 14.5288 89.6135 15.2423 88.447 16.6291C87.2944 17.999 86.5588 19.8195 86.2101 22.0547C85.8629 24.2713 86.0106 26.1257 86.7261 27.5668L87.1739 27.3445L86.7261 27.5669C87.0894 28.2985 87.5943 28.8689 88.2469 29.2527C88.8973 29.6351 89.6636 29.814 90.5236 29.814C92.3068 29.814 93.79 29.0705 94.9419 27.6243C96.0705 26.2076 96.7978 24.394 97.1467 22.2107ZM10.9618 10.1577L12.6953 8.63138H39.33L38.0917 10.1577H10.9618ZM66.9786 33.7814L70.7588 10.4824H76.3064L72.5261 33.7814H66.9786ZM35.758 18.4245H0.889495L2.33054 16.0561H36.9109L35.758 18.4245ZM18.7765 23.4807H33.5808V25.0071H17.7859L18.7765 23.4807Z" stroke="#F5B32F"/>
</svg>
