<svg width="57" height="82" viewBox="0 0 57 82" fill="none" xmlns="http://www.w3.org/2000/svg">
<path d="M16.5206 29.0702C8.76925 29.0702 2.48552 22.7865 2.48552 15.0351C2.48552 7.28372 8.76925 1 16.5206 1H41.7838C49.5351 1 55.8189 7.28372 55.8189 15.0351C55.8189 22.7865 49.5351 29.0702 41.7838 29.0702H29.1522M16.5206 29.0702H29.1522M16.5206 29.0702C11.8422 29.0702 2.48552 31.3158 2.48552 40.2982C2.48552 49.2807 8.09956 53.3977 10.9066 54.3333M29.1522 29.0702L29.1521 54.3333M10.9066 54.3333C1.92412 54.3333 0.614179 64.6257 1.08202 69.7719C2.01769 73.5146 6.13465 81 15.1171 81C24.0996 81 28.2165 73.5146 29.1522 69.7719L29.1521 54.3333M10.9066 54.3333C19.889 54.3333 26.8129 54.3333 29.1521 54.3333M41.7838 31.8772C45.5264 31.8772 53.0117 34.1228 53.0117 43.1053C53.0117 52.0877 45.5264 54.3333 41.7838 54.3333C38.5089 54.3333 31.9591 52.0877 31.9591 43.1053C31.9591 34.1228 38.5089 31.8772 41.7838 31.8772Z" stroke="#F5B32F"/>
</svg>
