<svg width="32" height="32" viewBox="0 0 32 32" fill="none" xmlns="http://www.w3.org/2000/svg">
<path d="M15.2577 14.3969C10.486 9.02864 16.9477 4.10774 20.3277 1.57272C22.1172 0.0711023 23.619 1.88014 22.7137 2.91479C21.6698 4.10774 18.2401 7.83569 17.1963 8.7304C16.1525 9.62512 18.3892 11.7128 19.1348 10.9672C19.8804 10.2216 23.9066 6.49362 25.2487 5.15156C26.5907 3.80949 28.231 5.59891 27.0381 6.79186C25.8451 7.98481 21.8189 12.1601 21.2225 12.7566C20.626 13.3531 22.7137 15.1425 23.4592 14.3969C24.0557 13.8004 27.0381 10.5695 28.5293 9.02864C30.7959 6.76204 32.5555 8.43217 30.6169 10.8181C24.2048 19.4669 21.8189 20.0634 17.6436 16.9319C13.518 21.0078 5.08787 29.3087 4.3721 29.9052C3.47739 30.6508 2.73181 31.6946 1.38974 30.3526C0.316091 29.2789 1.24063 27.8176 1.8371 27.2211C4.17329 24.9843 10.1281 19.288 15.2577 14.3969Z" stroke="#F5B32F"/>
</svg>
