<svg width="87" height="80" viewBox="0 0 87 80" fill="none" xmlns="http://www.w3.org/2000/svg">
<path d="M34.4938 10.7143L34.1422 10.3588L34.117 10.3837L34.0955 10.412L34.4938 10.7143ZM34.4938 10.7143C34.1422 10.3588 34.1424 10.3585 34.1426 10.3583L34.1432 10.3578L34.1447 10.3563L34.1489 10.3522L34.1626 10.339C34.174 10.3281 34.1902 10.3129 34.2109 10.2939C34.2525 10.2557 34.3125 10.202 34.3908 10.1358C34.5474 10.0033 34.7771 9.82024 35.0774 9.61043C35.6778 9.19101 36.5625 8.66309 37.7113 8.2188C40.0153 7.32767 43.3654 6.77992 47.5776 8.09406C51.7428 9.39357 54.5522 11.3109 56.309 13.2542C58.0543 15.1848 58.7835 17.1709 58.7072 18.598C58.638 19.8952 58.3026 22.0686 57.5097 24.2955C56.7188 26.5171 55.4528 28.8475 53.4866 30.393L53.1777 29.9999L53.4866 30.393C51.6184 31.8614 49.0938 33.621 46.5228 34.3601C45.2304 34.7316 43.898 34.8538 42.6193 34.5282C41.3315 34.2004 40.1406 33.4288 39.1254 32.0874L39.0981 32.0514C35.3115 27.0487 32.9872 23.978 32.2032 19.0064C31.8049 16.4808 32.274 14.3385 32.8411 12.83C33.1248 12.0757 33.4338 11.4775 33.6736 11.0655C33.7935 10.8593 33.8964 10.6994 33.9706 10.5893C34.0077 10.5343 34.0376 10.4917 34.0589 10.462C34.0695 10.4471 34.078 10.4355 34.0842 10.4271L34.0917 10.4171L34.094 10.4139L34.0949 10.4128L34.0952 10.4124C34.0954 10.4122 34.0955 10.412 34.4938 10.7143ZM12.2165 49.2857L11.8649 48.9301L11.8397 48.9551L11.8182 48.9834L12.2165 49.2857ZM12.2165 49.2857C11.8649 48.9301 11.8652 48.9299 11.8654 48.9297L11.866 48.9292L11.8674 48.9277L11.8716 48.9236L11.8853 48.9104C11.8968 48.8995 11.9129 48.8843 11.9337 48.8653C11.9752 48.8271 12.0353 48.7734 12.1136 48.7072C12.2701 48.5747 12.4998 48.3916 12.8001 48.1818C13.4005 47.7624 14.2853 47.2345 15.434 46.7902C17.7381 45.8991 21.0882 45.3515 25.3004 46.6657C29.4657 47.9651 32.2751 49.8825 34.0319 51.8258C35.7771 53.7564 36.5063 55.7426 36.4301 57.1697C36.3608 58.4668 36.0254 60.6402 35.2325 62.8672C34.4416 65.0887 33.1756 67.4193 31.2094 68.9648L30.9004 68.5717L31.2094 68.9648C29.3413 70.433 26.8167 72.1926 24.2457 72.9317C22.9533 73.3032 21.6208 73.4255 20.3421 73.0999C19.0543 72.772 17.8634 72.0005 16.8481 70.6591L16.8209 70.6231C13.0344 65.6204 10.7101 62.5495 9.92604 57.5779L10.4199 57.5L9.92604 57.5779C9.52778 55.0523 9.99682 52.91 10.5639 51.4015C10.8476 50.6471 11.1565 50.0489 11.3963 49.6369C11.5163 49.4307 11.6192 49.2708 11.6933 49.1607C11.7304 49.1057 11.7603 49.0631 11.7816 49.0334C11.7923 49.0185 11.8008 49.0069 11.8069 48.9986L11.8144 48.9885L11.8168 48.9853L11.8176 48.9842L11.818 48.9838C11.8181 48.9836 11.8182 48.9834 12.2165 49.2857ZM57.4893 49.2857L57.1377 48.9301L57.1125 48.9551L57.091 48.9834L57.4893 49.2857ZM57.4893 49.2857C57.1377 48.9301 57.1379 48.9299 57.1382 48.9297L57.1387 48.9292L57.1402 48.9277L57.1444 48.9236L57.1581 48.9104C57.1696 48.8995 57.1857 48.8843 57.2065 48.8653C57.248 48.8271 57.3081 48.7734 57.3863 48.7072C57.5429 48.5747 57.7726 48.3916 58.0729 48.1818C58.6733 47.7624 59.5581 47.2345 60.7068 46.7902C63.0109 45.8991 66.361 45.3515 70.5731 46.6657C74.7384 47.9651 77.5478 49.8825 79.3046 51.8258C81.0498 53.7564 81.779 55.7426 81.7028 57.1697C81.6335 58.4668 81.2981 60.6402 80.5052 62.8672C79.7143 65.0887 78.4483 67.4192 76.4822 68.9648L76.1732 68.5717L76.4822 68.9648C74.6141 70.433 72.0894 72.1926 69.5185 72.9317C68.2261 73.3032 66.8936 73.4255 65.6148 73.0999C64.3271 72.772 63.1362 72.0005 62.1209 70.6591L62.0945 70.6242C58.3073 65.6208 55.9828 62.5499 55.1986 57.5779L55.1986 57.5779C54.8004 55.0523 55.2695 52.91 55.8367 51.4015C56.1203 50.6471 56.4293 50.0489 56.6691 49.6369C56.7891 49.4307 56.892 49.2708 56.9661 49.1607C57.0032 49.1057 57.0331 49.0631 57.0544 49.0334C57.0651 49.0185 57.0735 49.0069 57.0797 48.9985L57.0872 48.9885L57.0896 48.9853L57.0904 48.9842L57.0907 48.9838C57.0909 48.9836 57.091 48.9834 57.4893 49.2857ZM22.7769 20.7143C22.7769 9.54488 31.7278 0.5 42.7576 0.5C53.7869 0.5 62.7379 9.54488 62.7379 20.7143C62.7379 31.8837 53.7869 40.9287 42.7576 40.9287C31.7278 40.9287 22.7769 31.8837 22.7769 20.7143ZM0.5 59.2857C0.5 48.1161 9.45088 39.0713 20.4805 39.0713C31.5101 39.0713 40.4611 48.1161 40.4611 59.2857C40.4611 70.4552 31.5101 79.5 20.4805 79.5C9.45088 79.5 0.5 70.4552 0.5 59.2857ZM45.7727 59.2857C45.7727 48.1161 54.7238 39.0713 65.7531 39.0713C76.7827 39.0713 85.7338 48.1161 85.7338 59.2857C85.7338 70.4552 76.7827 79.5 65.7531 79.5C54.7238 79.5 45.7727 70.4552 45.7727 59.2857Z" stroke="#F5B32F"/>
</svg>
