<svg width="80" height="80" viewBox="0 0 80 80" fill="none" xmlns="http://www.w3.org/2000/svg">
<path d="M77.5471 35.2924L77.5475 35.2928C80.1506 37.8895 80.1506 42.1103 77.5475 44.7069L77.5471 44.7074L44.7076 77.5472L44.7068 77.548C43.412 78.8488 41.707 79.5 40 79.5C38.2926 79.5 36.5879 78.8488 35.2931 77.548L35.2923 77.5472L2.45275 44.7074L2.45231 44.7069C-0.150769 42.1103 -0.150769 37.8895 2.45231 35.2928L2.45275 35.2924L25.985 11.7601L33.4087 19.1836C31.9484 21.9862 32.3678 25.5206 34.7279 27.8807C35.6088 28.7617 36.6587 29.3502 37.7608 29.6917V50.3027C34.7433 51.2529 32.5434 54.0512 32.5434 57.3913C32.5434 61.5124 35.8785 64.8478 40 64.8478C44.121 64.8478 47.4565 61.5124 47.4565 57.3913C47.4565 54.0512 45.2566 51.2529 42.2391 50.3027V29.692C42.6464 29.5646 43.0419 29.4006 43.4254 29.2003L50.7933 36.5683C49.3333 39.3774 49.7592 42.9121 52.1192 45.2721C55.0319 48.1847 59.7506 48.1847 62.6632 45.2721C65.5759 42.3594 65.5759 37.6407 62.6632 34.728C60.3032 32.368 56.7686 31.9419 53.9595 33.4022L46.5912 26.0337C48.0513 23.2312 47.6322 19.6967 45.272 17.3366C42.912 14.9767 39.3773 14.5506 36.5682 16.0108L29.1514 8.59375L35.2923 2.45275L35.2931 2.4519C36.5879 1.15094 38.2925 0.5 40 0.5C41.7071 0.5 43.4121 1.15095 44.7068 2.4519L44.7076 2.45275L77.5471 35.2924Z" stroke="#F5B32F"/>
</svg>
