<svg width="83" height="80" viewBox="0 0 83 80" fill="none" xmlns="http://www.w3.org/2000/svg">
<path d="M19.5178 69.6768C21.8747 71.3921 25.5898 72.7666 31.1094 71.7228C31.1221 73.8214 31.1146 74.9663 31.1093 75.7812C31.1072 76.1082 31.1054 76.3821 31.1054 76.6431C31.1054 77.2967 30.7961 78.0984 30.2525 78.6908C29.7258 79.2646 29.0246 79.5982 28.2216 79.4657C12.1164 74.0887 0.5 58.9013 0.5 41.0129C0.5 18.6475 18.6707 0.5 41.087 0.5C63.5035 0.5 81.674 18.6475 81.674 41.0129C81.674 58.9019 70.0813 74.0652 53.9749 79.4664C53.1461 79.6105 52.4404 79.2748 51.9161 78.701C51.3739 78.1074 51.0686 77.2997 51.0686 76.6431V76.6351V76.627V76.6188V76.6106V76.6023V76.5938V76.5854V76.5768V76.5681V76.5594V76.5505V76.5416V76.5326V76.5236V76.5144V76.5052V76.4958V76.4864V76.477V76.4674V76.4578V76.448V76.4382V76.4283V76.4184V76.4083V76.3982V76.388V76.3777V76.3674V76.3569V76.3464V76.3358V76.3251V76.3144V76.3035V76.2926V76.2816V76.2705V76.2594V76.2482V76.2368V76.2255V76.214V76.2025V76.1908V76.1792V76.1674V76.1555V76.1436V76.1316V76.1195V76.1074V76.0952V76.0829V76.0705V76.058V76.0455V76.0329V76.0202V76.0074V75.9946V75.9817V75.9687V75.9557V75.9425V75.9293V75.916V75.9027V75.8893V75.8758V75.8622V75.8485V75.8348V75.821V75.8072V75.7932V75.7792V75.7651V75.751V75.7367V75.7224V75.7081V75.6936V75.6791V75.6645V75.6499V75.6351V75.6203V75.6054V75.5905V75.5755V75.5604V75.5452V75.53V75.5147V75.4994V75.4839V75.4684V75.4528V75.4372V75.4215V75.4057V75.3899V75.3739V75.3579V75.3419V75.3258V75.3096V75.2933V75.277V75.2606V75.2441V75.2276V75.211V75.1943V75.1776V75.1608V75.1439V75.127V75.11V75.0929V75.0758V75.0586V75.0413V75.024V75.0066V74.9891V74.9716V74.954V74.9363V74.9186V74.9008V74.8829V74.865V74.847V74.829V74.8109V74.7927V74.7745V74.7562V74.7378V74.7194V74.7009V74.6823V74.6637V74.645V74.6263V74.6075V74.5886V74.5696V74.5507V74.5316V74.5125V74.4933V74.4741V74.4548V74.4354V74.416V74.3965V74.3769V74.3573V74.3376V74.3179V74.2981V74.2783V74.2584V74.2384V74.2184V74.1983V74.1781V74.1579V74.1377V74.1173V74.0969V74.0765V74.056V74.0354V74.0148V73.9941V73.9734V73.9526V73.9318V73.9109V73.8899V73.8689V73.8478V73.8267V73.8055V73.7842V73.7629V73.7415V73.7201V73.6986V73.6771V73.6555V73.6339V73.6122V73.5904V73.5686V73.5468V73.5248V73.5029V73.4808V73.4587V73.4366V73.4144V73.3922V73.3699V73.3475V73.3251V73.3026V73.2801V73.2575V73.2349V73.2122V73.1895V73.1667V73.1439V73.121V73.0981V73.0751V73.052V73.029V73.0058V72.9826V72.9594V72.9361V72.9127V72.8893V72.8659V72.8423V72.8188V72.7952V72.7715V72.7478V72.7241V72.7003V72.6764V72.6525V72.6285V72.6045V72.5805V72.5564V72.5322V72.508V72.4838V72.4595V72.4351V72.4107V72.3863V72.3618V72.3373V72.3127V72.2881V72.2634V72.2387V72.2139V72.1891V72.1642V72.1393V72.1143V72.0893V72.0643V72.0392V72.014V71.9888V71.9636V71.9383V71.913V71.8876V71.8622V71.8367V71.8112V71.7857V71.7601V71.7344V71.7087V71.683V71.6572V71.6314V71.6056V71.5797V71.5537V71.5277V71.5017V71.4756V71.4495V71.4233V71.3971V71.3709V71.3446V71.3183V71.2919V71.2655V71.239V71.2125V71.186V71.1594V71.1328V71.1061V71.0794V71.0527V71.0259V70.9991V70.9722V70.9453V70.9183V70.8913V70.8643V70.8373V70.8102V70.783V70.7558V70.7286V70.7014V70.6741V70.6467V70.6193V70.5919V70.5645V70.537V70.5095V70.4819V70.4543V70.4267V70.399V70.3713V70.3435V70.3157V70.2879V70.2601V70.2322V70.2042V70.1763V70.1482V70.1202V70.0921V70.064V70.0359V70.0077V69.9795V69.9512V69.9229V69.8946V69.8662V69.8379V69.8094V69.781V69.7525V69.724V69.6954V69.6668V69.6382V69.6095V69.5808V69.5521V69.5233V69.4945V69.4657V69.4369V69.408V69.379V69.3501V69.3211V69.2921V69.263V69.234V69.2048V69.1757V69.1465V69.1173V69.0881V69.0588V69.0295V69.0002V68.9708V68.9415V68.912V68.8826V68.8531V68.8236V68.7941V68.7645V68.7349V68.7053V68.6757V68.646V68.6163V68.5865V68.5568V68.527V68.4972V68.4673V68.4375V68.4076V68.3776V68.3477V68.3177V68.2877V68.2576V68.2276V68.1975V68.1674V68.1372V68.1071V68.0769V68.0467V68.0164V67.9861V67.9558V67.9255V67.8952V67.8648V67.8344V67.804V67.7736V67.7431V67.7126V67.6821V67.6515V67.621V67.5904V67.5598V67.5291V67.4985V67.4678V67.4371V67.4064V67.3756V67.3449V67.3141V67.2832V67.2524V67.2215V67.1907V67.1598V67.1288V67.0979V67.0669V67.0359V67.0049V66.9739V66.9429V66.9118V66.8807V66.8496V66.8185V66.7873V66.7561V66.725V66.6937V66.6625V66.6313V66.6V66.5687V66.5374V66.5061V66.4748V66.4434V66.412V66.3806V66.3492V66.3178V66.2863V66.2549V66.2234V66.1919V66.1604V66.1288V66.0973V66.0657V66.0341V66.0025V65.9709V65.9393V65.9076V65.876V65.8443V65.8126V65.7809V65.7492V65.7174V65.6857V65.6539V65.6221V65.5903V65.5585V65.5267V65.4948V65.463V65.4311V65.3992V65.3673V65.3354V65.3035V65.2716V65.2396V65.2077V65.1757V65.1437V65.1117V65.0797V65.0477V65.0156V64.9836V64.9515V64.9195V64.8874V64.8553V64.8232V64.7911C51.0686 62.6253 50.9887 60.9346 50.4 59.6276C56.5908 58.4414 61.4376 56.0297 64.7717 52.6253C68.234 49.09 70.0319 44.5169 70.0319 39.2349C70.0319 32.9899 68.0957 28.2086 64.8929 24.6982C65.1525 24.2035 65.3801 23.5466 65.5552 22.8019C65.7779 21.8554 65.925 20.7282 65.9361 19.5327C65.9582 17.1525 65.441 14.434 63.8293 12.3374L63.6792 12.1422H63.4329C59.496 12.1422 56.3532 13.5441 54.2011 14.9386C53.1247 15.6362 52.2924 16.3341 51.7277 16.8595C51.4515 17.1164 51.2388 17.3325 51.0923 17.4877C50.9927 17.4529 50.8712 17.4119 50.7279 17.3664C50.2767 17.2229 49.6101 17.0335 48.7359 16.8448C46.9872 16.4674 44.4086 16.0928 41.0622 16.0928C37.7263 16.0928 35.1461 16.4864 33.3932 16.8829C32.5169 17.0812 31.8475 17.2801 31.394 17.4309C31.2521 17.4781 31.1313 17.5205 31.0319 17.5568C30.8863 17.3999 30.6762 17.1827 30.404 16.925C29.8417 16.3925 29.0126 15.685 27.9391 14.9777C25.7929 13.5639 22.6552 12.1422 18.7163 12.1422H18.47L18.3199 12.3374C16.7078 14.4345 16.19 17.1545 16.2504 19.5561C16.2807 20.7618 16.4568 21.9042 16.7239 22.8725C16.9352 23.6387 17.2099 24.3194 17.5305 24.839C14.1976 28.4106 12.1667 33.1802 12.1422 39.2329L12.1422 39.2337C12.1295 44.5167 13.9278 49.0902 17.3963 52.6286C20.7412 56.041 25.6092 58.4607 31.8251 59.6565C31.3258 60.8501 31.1269 62.4635 31.1071 64.4515C29.9479 64.8676 27.8612 65.1627 25.6748 64.786C23.3052 64.3778 20.8838 63.1936 19.3974 60.5923L19.3974 60.5923L19.3925 60.584L18.9632 60.8404C19.3925 60.584 19.3924 60.5839 19.3923 60.5837L19.392 60.5832L19.3913 60.582L19.3893 60.5787L19.3829 60.5682C19.3776 60.5596 19.3702 60.5476 19.3606 60.5326C19.3416 60.5025 19.314 60.4601 19.2781 60.407C19.2063 60.3007 19.1006 60.1515 18.9612 59.9729C18.6828 59.6162 18.2676 59.1395 17.7168 58.6536C16.6164 57.683 14.9541 56.6594 12.7491 56.5143L12.7373 56.5135L12.7255 56.5133L12.7162 57.0132C12.7255 56.5133 12.7253 56.5133 12.7252 56.5133L12.7247 56.5133L12.7236 56.5132L12.7202 56.5132L12.7091 56.5131L12.6709 56.513C12.6386 56.5131 12.5931 56.5136 12.5373 56.5152C12.426 56.5184 12.2716 56.526 12.098 56.544C11.771 56.5778 11.2997 56.655 10.9378 56.8579C10.7515 56.9623 10.5459 57.1268 10.4339 57.3833C10.3149 57.6557 10.338 57.9467 10.4541 58.2194C10.6652 58.7152 11.227 59.2569 12.1629 59.8953L12.1752 59.9037L12.1857 59.91L12.1865 59.9104L12.1867 59.9106L12.1871 59.9108L12.1876 59.9111L12.188 59.9114L12.1982 59.9179C12.21 59.9256 12.2301 59.9389 12.2577 59.9584C12.3129 59.9974 12.3985 60.0609 12.5093 60.153C12.7307 60.3371 13.0534 60.6356 13.4361 61.0801C14.2009 61.9685 15.2094 63.4448 16.1279 65.7652L16.132 65.7754L16.1365 65.7855L16.5928 65.5812C16.1365 65.7855 16.1366 65.7858 16.1368 65.7861L16.1371 65.787L16.1382 65.7893L16.1412 65.796L16.1515 65.8178C16.1601 65.8362 16.1725 65.8618 16.1887 65.8942C16.2211 65.9589 16.2689 66.0508 16.3331 66.1651C16.4616 66.3937 16.6562 66.7128 16.9257 67.0855C17.4643 67.8306 18.3049 68.7941 19.5178 69.6768Z" stroke="#F5B32F"/>
</svg>
