<svg width="150" height="56" viewBox="0 0 150 56" fill="none" xmlns="http://www.w3.org/2000/svg">
<path d="M80.9139 18.4429C80.7955 18.2968 80.6301 18.0999 80.4211 17.8681C79.9679 17.3656 79.3071 16.6964 78.4746 16.0283C76.8186 14.6992 74.4319 13.3337 71.6202 13.3667C66.2552 13.4296 60.3652 14.8795 57.3255 21.1758C55.8544 24.2226 54.8734 27.1208 54.7597 29.9078C54.6452 32.7128 55.4104 35.3783 57.3793 37.9394C59.3457 40.4974 61.6108 41.7381 63.3923 42.3362C64.2813 42.6346 65.0486 42.7727 65.5974 42.8361C65.872 42.8679 66.0924 42.881 66.2467 42.886C66.3238 42.8886 66.3845 42.8891 66.4272 42.889C66.4356 42.889 66.4433 42.8889 66.4503 42.8888C66.4596 42.8887 66.4677 42.8886 66.4744 42.8885L66.4837 42.8889C66.4935 42.8894 66.5053 42.8899 66.5192 42.8905C66.5333 42.8911 66.5495 42.8917 66.5678 42.8923C66.6401 42.8946 66.7445 42.8968 66.8774 42.8966C67.1432 42.8963 67.5235 42.8863 67.9899 42.8484C68.9216 42.7726 70.2032 42.5848 71.6038 42.1353C74.4097 41.235 77.7111 39.2762 79.6008 35.0665L79.8988 34.4027L79.1723 34.3625C77.128 34.2494 73.253 34.2498 69.9049 34.2777C68.2274 34.2918 66.6768 34.3128 65.5456 34.3303C65.1094 34.337 64.7355 34.3433 64.4407 34.3484L68.4097 23.8742H92.5994H92.9254L93.0569 23.5758L93.057 23.5755L93.0578 23.5739L93.061 23.5665L93.0748 23.5358C93.0871 23.5084 93.1058 23.467 93.1308 23.4125C93.1808 23.3036 93.2558 23.1424 93.3551 22.9352C93.5536 22.5208 93.849 21.9228 94.2348 21.1922C95.0068 19.7303 96.139 17.7408 97.5796 15.6302C100.475 11.3888 104.559 6.74231 109.404 4.8247C114.345 2.86913 120.16 1.59624 125.446 1.44861C130.756 1.30031 135.42 2.28971 138.171 4.73358C143.955 9.87211 149.893 15.7292 149.48 26.1272C149.273 31.3402 147.233 36.6243 144.498 40.9961C141.757 45.376 138.361 48.7753 135.502 50.2636C135.309 50.3643 135.117 50.4644 134.928 50.5632L134.927 50.5633C132.104 52.0362 129.682 53.2986 126.854 54.1641C124.035 55.027 120.796 55.4998 116.359 55.3572C111.769 55.2097 108.633 54.4807 106.381 53.535C104.137 52.5921 102.746 51.423 101.656 50.3506C101.256 49.958 100.844 49.588 100.416 49.2036C99.579 48.4527 98.6814 47.6472 97.7012 46.5121C96.246 44.8267 94.656 42.4525 93.0608 38.6307L92.6997 37.7655L92.1824 38.5474C91.9998 38.8234 91.8121 39.1095 91.6188 39.4042C88.2182 44.5886 83.0791 52.4233 73.5144 54.1767C63.2412 56.0601 57.4268 55.1642 51.2858 51.8516L51.0796 52.2337L51.2858 51.8516C48.2598 50.2194 45.5288 47.1206 43.5564 43.9605C42.5736 42.3859 41.7888 40.8113 41.2555 39.4206C40.7174 38.0174 40.4524 36.8448 40.468 36.0603C40.5033 34.2916 40.5032 31.8105 40.4945 29.775C40.4901 28.7565 40.4835 27.8483 40.478 27.1947C40.4752 26.8679 40.4728 26.6047 40.471 26.4232L40.4689 26.2144L40.4687 26.1959C40.4707 26.1866 40.473 26.176 40.4756 26.164C40.4879 26.1081 40.5073 26.0234 40.5347 25.9115C40.5897 25.6878 40.6772 25.3558 40.8059 24.93C41.0633 24.0782 41.4855 22.8513 42.1418 21.3641C43.4543 18.3898 45.7025 14.3765 49.4408 10.2409L49.0699 9.9056L49.4408 10.2409C56.8684 2.02379 67.0744 0.54279 71.235 0.502288C75.3829 0.461896 87.5624 0.801218 93.5151 14.3717C90.5175 15.4659 87.3771 16.4811 84.9405 17.2357C83.6557 17.6336 82.5678 17.9587 81.8013 18.1842C81.4215 18.296 81.1206 18.3833 80.9139 18.4429ZM112.194 41.2327C118.626 45.5754 127.684 43.2263 132.452 36.1496C137.22 29.0732 136.003 19.7873 129.572 15.4448C123.14 11.1021 114.082 13.4513 109.314 20.5279C104.546 27.6045 105.763 36.8903 112.194 41.2327ZM37.755 16.5358H11.6394L13.244 15.159H38.9013L37.755 16.5358ZM34.5145 23.6661H0.90164L2.25589 21.4971H35.5979L34.5145 23.6661ZM19.2625 28.6274H33.5321V30.0041H18.3456L19.2625 28.6274Z" stroke="#F5B32F"/>
</svg>
