<svg width="80" height="80" viewBox="0 0 80 80" fill="none" xmlns="http://www.w3.org/2000/svg">
<rect x="0.5" y="0.5" width="79" height="79" rx="10.5" stroke="#F5B32F"/>
<path d="M36.5 19.5H27C27 18 26 16 22.5 16C19 16 17 18.5 16.5 22C16 25.5 16.5 32 22 32C26.4 32 27.5 29.6667 27.5 28.5H22V21.5H36.5V28C36.5 30.8 35.1667 33.5 34.5 34.5C33.1667 36.5 28.8 40.5 22 40.5C13.5 40.5 7.49998 34 6.99998 26.5C6.49998 19 8.49998 15 12 11.5C15.5 8 23.5 6 30 9.5C35.2 12.3 36.5 17.3333 36.5 19.5Z" stroke="#F5B32F"/>
<rect x="39.5" y="7.5" width="31" height="33" rx="14.5" stroke="#F5B32F"/>
<rect x="49.5" y="15.5" width="11" height="17" rx="5.5" stroke="#F5B32F"/>
<rect x="6.5" y="57.5" width="49" height="12" stroke="#F5B32F"/>
</svg>
