<svg width="150" height="55" viewBox="0 0 150 55" fill="none" xmlns="http://www.w3.org/2000/svg">
<path d="M1.57895 46.4896L8.7162 45.532C9.14398 46.4417 9.85603 47.2283 10.8211 47.8979L10.8212 47.898C11.9691 48.694 13.5628 49.0591 15.5384 49.0591C17.5178 49.0591 19.1956 48.5786 20.5353 47.5818C21.9429 46.5348 22.5896 44.8178 22.5896 42.5759V36.838V36.338H22.0896H21.7212H21.396L21.2641 36.6353C20.7346 37.8297 19.791 38.9397 18.3965 39.9565L18.6911 40.3605L18.3965 39.9565C17.0637 40.9285 15.201 41.4431 12.7543 41.4431C10.4745 41.4431 8.41467 40.9116 6.5637 39.8548C4.72901 38.8072 3.25767 37.2047 2.15601 35.02L2.15599 35.0199C1.06197 32.8509 0.5 30.069 0.5 26.6483C0.5 23.1327 1.07566 20.2462 2.19903 17.966C3.33136 15.6675 4.82134 13.9649 6.66013 12.8307C8.5117 11.6887 10.5325 11.1184 12.7338 11.1184C14.4412 11.1184 15.8335 11.4059 16.9325 11.9541L16.9326 11.9541C18.0692 12.5209 18.9741 13.2131 19.6605 14.0247L19.6605 14.0247C20.3734 14.8674 20.905 15.6923 21.2646 16.4988L21.3967 16.7952H21.7212H22.0486H22.5486V16.2952V11.5267H30.2083V42.6985C30.2083 45.282 29.572 47.4053 28.3296 49.1007C27.0746 50.813 25.3433 52.1097 23.115 52.9843C23.115 52.9843 23.115 52.9843 23.115 52.9843L23.2977 53.4498M1.57895 46.4896L5.36371 52.2858M1.57895 46.4896C2.15562 48.5821 3.49728 50.3775 5.64932 51.8754M1.57895 46.4896L5.64932 51.8754M23.2977 53.4498C20.9911 54.355 18.3365 54.8076 15.3338 54.8076C11.1029 54.8076 7.77952 53.967 5.36371 52.2858M23.2977 53.4498C25.6039 52.5445 27.4158 51.1933 28.7329 49.3963L23.2977 53.4498ZM5.36371 52.2858L5.64935 51.8754C5.64934 51.8754 5.64933 51.8754 5.64932 51.8754M5.36371 52.2858L5.64932 51.8754M149.425 28.6364C149.063 30.907 148.204 33.0569 146.841 35.0893C145.375 37.276 143.382 39.0538 140.847 40.4208C138.334 41.776 135.324 42.4641 131.8 42.4641C128.139 42.4641 124.886 41.6386 122.028 39.9983L121.779 40.432L122.028 39.9983C119.174 38.3604 116.918 35.9886 115.26 32.8667C113.608 29.7558 112.77 25.9676 112.77 21.4821C112.77 16.9835 113.618 13.1894 115.289 10.0794C116.968 6.95672 119.238 4.5877 122.098 2.95624C124.964 1.32166 128.194 0.5 131.8 0.5C134.972 0.5 137.817 1.08378 140.344 2.24132L140.551 1.78744L140.344 2.24133C142.868 3.39762 144.929 5.0723 146.536 7.26872L146.939 6.97352L146.536 7.26878C148.04 9.32529 149.009 11.8018 149.43 14.7131H141.456C141.044 12.502 140.029 10.7207 138.4 9.40278L138.085 9.79151L138.4 9.40277C136.672 8.00565 134.529 7.32099 132.005 7.32099C128.617 7.32099 125.868 8.56844 123.809 11.0662L124.195 11.3843L123.809 11.0662C121.751 13.5621 120.757 17.0571 120.757 21.4821C120.757 26.0119 121.756 29.5399 123.834 31.9853C125.906 34.4238 128.624 35.6432 131.943 35.6432C134.396 35.6432 136.505 35.0015 138.242 33.6947C139.888 32.457 140.95 30.7479 141.439 28.6L149.425 28.6364ZM61.5516 26.3779L70.0512 41.8923H61.4089L53.6071 27.3311L53.4658 27.0672H53.1664H46.6971H46.1971V27.5672V41.8923H38.3327V1.07161H54.3744C59.0517 1.07161 62.6091 2.28668 65.1169 4.65185L65.46 4.2881L65.1169 4.65185C67.6286 7.0206 68.9009 10.1958 68.9009 14.2328C68.9009 17.0157 68.2802 19.3629 67.0634 21.2974C65.8462 23.2325 64.0967 24.6933 61.7935 25.6779L61.2868 25.8945L61.5516 26.3779ZM84.5297 28.3333H84.0297V28.8333V41.8923H76.1653V1.07161H92.207C95.3248 1.07161 97.9481 1.66215 100.097 2.81907L100.334 2.37951L100.097 2.81907C102.255 3.98053 103.893 5.58116 105.025 7.62412C106.159 9.6706 106.734 12.0389 106.734 14.7432C106.734 17.4463 106.15 19.806 104.997 21.8376C103.846 23.8663 102.182 25.4543 99.9896 26.6035L100.222 27.0463L99.9896 26.6035C97.8049 27.7489 95.1422 28.3333 91.982 28.3333H84.5297ZM46.1971 20.4611V20.9611H46.6971H52.7161C55.2903 20.9611 57.3139 20.4325 58.6999 19.2899C60.1043 18.132 60.7704 16.4143 60.7704 14.233C60.7704 11.988 60.1038 10.2205 58.6948 9.02714C57.3016 7.84729 55.2656 7.30059 52.6751 7.30059H46.6971H46.1971V7.80059V20.4611ZM84.0297 21.7476V22.2476H84.5297H90.5487C93.1668 22.2476 95.2139 21.5766 96.5899 20.1439C97.9419 18.7368 98.6029 16.9212 98.6029 14.7435C98.6029 12.5534 97.9425 10.7417 96.5863 9.35975C95.2089 7.95567 93.1485 7.30059 90.5078 7.30059H84.5297H84.0297V7.80059V21.7476ZM10.1985 33.3312L10.6048 33.0398L10.1985 33.3312C11.4359 35.0561 13.2336 35.9086 15.5181 35.9086C17.7622 35.9086 19.5453 35.0701 20.802 33.3789C22.0418 31.7107 22.6307 29.4336 22.6307 26.6074C22.6307 23.7921 22.044 21.483 20.8214 19.7261L20.8214 19.7261C19.5756 17.9362 17.7868 17.0409 15.5181 17.0409C13.207 17.0409 11.4039 17.9583 10.1786 19.7955C8.98295 21.588 8.40553 23.871 8.40553 26.6074C8.40553 29.381 8.98503 31.6395 10.1985 33.3312Z" stroke="#F5B32F"/>
</svg>
