<svg width="67" height="80" viewBox="0 0 67 80" fill="none" xmlns="http://www.w3.org/2000/svg">
<path d="M16.1236 67.6765V68.8829L16.977 68.0302L25.632 59.382L25.9859 59.0284L25.6322 58.6747L16.9772 50.0197L16.1236 49.1661V50.3732V67.6765ZM49.1507 68.2308H49.6507V67.7308V37.4457C49.6507 33.1389 48.0846 30.43 45.6587 28.8654C43.2716 27.3257 40.1359 26.9499 37.0855 27.0949C34.0232 27.2404 30.9729 27.9149 28.6966 28.5485C27.5565 28.8659 26.6061 29.1743 25.9398 29.4037C25.8037 29.4506 25.6794 29.4942 25.5677 29.5339V12.1672V11.6644L25.065 11.6672L16.4645 11.7148L15.9673 11.7175V12.2148H16.4673C15.9673 12.2148 15.9673 12.2149 15.9673 12.2151V12.216V12.2199V12.2352L15.9673 12.2958L15.9673 12.5318L15.9674 13.4277C15.9675 14.1995 15.9677 15.3019 15.968 16.6244C15.9688 19.2693 15.9703 22.7946 15.9732 26.3158C15.9762 29.837 15.9807 33.3544 15.9873 35.9836C15.9907 37.2981 15.9946 38.3911 15.9991 39.1517C16.0014 39.5318 16.0039 39.8299 16.0065 40.0314C16.0078 40.1317 16.0092 40.2105 16.0107 40.264C16.0114 40.2896 16.0123 40.3151 16.0136 40.3357C16.014 40.3416 16.0153 40.3653 16.0193 40.3916C16.0206 40.4 16.0244 40.4201 16.0271 40.4322C16.0322 40.4523 16.0522 40.5107 16.0696 40.5481C16.1295 40.6388 16.4421 40.8145 16.6957 40.7857C16.6963 40.7854 16.6968 40.7851 16.6974 40.7848C23.2637 38.2278 28.0489 36.7702 31.5304 36.0183C35.0201 35.2647 37.1643 35.2281 38.4661 35.4784C39.748 35.7248 40.1577 36.2342 40.3014 36.5659C40.3799 36.7474 40.3981 36.9181 40.3962 37.0439C40.3953 37.1064 40.3895 37.1557 40.3846 37.1864C40.3822 37.2017 40.38 37.212 40.379 37.2167L40.3789 37.2173C40.3789 37.2175 40.3788 37.2177 40.3787 37.2179L40.3626 37.2772V37.3439V67.7308V68.2308H40.8626H49.1507ZM45.7608 23.6113H46.0064L46.1566 23.4169C48.6512 20.1865 50.3085 17.4384 51.344 15.4929C51.8617 14.5202 52.224 13.7481 52.4577 13.2166C52.5746 12.9509 52.6593 12.7453 52.7153 12.6049C52.7433 12.5347 52.7641 12.4808 52.7782 12.4438L52.7942 12.401L52.7985 12.3893L52.7997 12.3859L52.8001 12.3848L52.8003 12.3844C52.8003 12.3843 52.8004 12.3841 52.33 12.2145L52.8004 12.3841L53.0418 11.7145H52.33H42.8938H42.5649L42.4347 12.0165L42.4346 12.0166L42.4343 12.0174L42.4328 12.0208L42.4267 12.035L42.4018 12.0919C42.3797 12.1423 42.3466 12.2172 42.3033 12.3141C42.2167 12.508 42.089 12.7901 41.9253 13.1415C41.598 13.8444 41.1273 14.8235 40.5547 15.927C39.4058 18.1414 37.8607 20.8282 36.2505 22.7945L35.5815 23.6113H36.6373H45.7608ZM8.69564 0.5H57.3912C61.9111 0.5 65.5869 4.1756 65.5869 8.69563V71.3044C65.5869 75.8242 61.9111 79.5 57.3912 79.5H8.69564C4.1756 79.5 0.5 75.8242 0.5 71.3044V8.69563C0.5 4.17559 4.17559 0.5 8.69564 0.5Z" stroke="#F5B32F"/>
</svg>
