<svg width="72" height="80" viewBox="0 0 72 80" fill="none" xmlns="http://www.w3.org/2000/svg">
<path d="M55.2968 24.8281H55.7555L55.7949 24.3711L56.5138 16.043L56.5606 15.5H56.0156H16.0312H15.4873L15.533 16.0421L17.6737 41.4013L17.7123 41.8592H18.1719H45.3769L44.5022 51.9674L36.0926 53.8625L27.5142 51.966L27.2014 48.2548L27.1627 47.7968H26.7031H18.7656H18.2214L18.2674 48.3391L19.158 58.8391L19.1863 59.1718L19.5045 59.2732L35.6748 64.4242L35.8147 64.48L35.9811 64.5464L36.1518 64.492L52.527 59.2732L52.8451 59.1718L52.8734 58.8391L55.0606 33.0891L55.1067 32.5468H54.5624H25.8659L25.2158 24.8281H55.2968ZM0.558632 0.5H71.4414L63.5401 71.6114L36 79.48L8.4599 71.6114L0.558632 0.5Z" stroke="#F5B32F"/>
</svg>
