<svg width="100" height="100" viewBox="0 0 100 100" fill="none" xmlns="http://www.w3.org/2000/svg">
<path d="M0.5 24C0.5 11.0213 11.0213 0.5 24 0.5H76C88.9787 0.5 99.5 11.0213 99.5 24V76C99.5 88.9787 88.9787 99.5 76 99.5H24C11.0213 99.5 0.5 88.9787 0.5 76V24ZM74.5 50C74.5 63.531 63.531 74.5 50 74.5C36.469 74.5 25.5 63.531 25.5 50C25.5 36.469 36.469 25.5 50 25.5C63.531 25.5 74.5 36.469 74.5 50ZM50 75.5C64.0833 75.5 75.5 64.0833 75.5 50C75.5 35.9167 64.0833 24.5 50 24.5C35.9167 24.5 24.5 35.9167 24.5 50C24.5 64.0833 35.9167 75.5 50 75.5ZM86.5 18C86.5 21.5899 83.5898 24.5 80 24.5C76.4102 24.5 73.5 21.5899 73.5 18C73.5 14.4101 76.4102 11.5 80 11.5C83.5898 11.5 86.5 14.4101 86.5 18ZM80 25.5C84.1421 25.5 87.5 22.1421 87.5 18C87.5 13.8579 84.1421 10.5 80 10.5C75.8579 10.5 72.5 13.8579 72.5 18C72.5 22.1421 75.8579 25.5 80 25.5Z" stroke="#F5B32F"/>
</svg>
