<svg width="80" height="80" viewBox="0 0 80 80" fill="none" xmlns="http://www.w3.org/2000/svg">
<path d="M20.6936 64.3341L20.3076 64.5676L20.5004 64.9755C22.2963 68.7755 26.6977 72.8809 32.8274 72.8809C36.1702 72.8809 39.0545 71.9914 41.1055 70.06C43.1619 68.1235 44.3096 65.2069 44.3096 61.3023V36.1904V35.6904H43.8096H36.1905H35.6905V36.1904V60.1416C35.6905 61.9375 35.3465 62.9331 34.8273 63.4886C34.3188 64.0327 33.5404 64.2619 32.381 64.2619C30.1004 64.2619 28.4821 62.8524 27.3776 60.8929L27.1244 60.4438L26.6832 60.7106L20.6936 64.3341ZM47.3418 64.3458L46.9727 64.5919L47.173 64.9877C48.2704 67.156 49.8145 69.1344 51.97 70.5697C54.1288 72.0072 56.8725 72.8809 60.335 72.8809C63.8679 72.8809 66.9996 71.964 69.2591 70.1612C71.532 68.3479 72.8811 65.6697 72.8811 62.2547C72.8811 59.1087 71.973 56.7888 70.233 54.9207C68.5147 53.0759 66.0164 51.707 62.9124 50.381L61.0997 49.6008C61.0996 49.6008 61.0995 49.6008 61.0994 49.6007C59.533 48.9204 58.4923 48.391 57.8359 47.7934C57.2204 47.2331 56.9362 46.6061 56.9362 45.6475C56.9362 44.8981 57.2198 44.2538 57.7156 43.7939C58.2128 43.3327 58.9541 43.0297 59.9108 43.0297C60.8813 43.0297 61.6367 43.2319 62.2897 43.6653C62.9511 44.1044 63.5506 44.8095 64.1544 45.8912L64.4138 46.3561L64.8615 46.068L70.5163 42.4295L70.9145 42.1733L70.6803 41.7618C69.4452 39.5908 67.9545 38.0618 66.1514 37.0812C64.3515 36.1022 62.2784 35.6904 59.9108 35.6904C56.5589 35.6904 53.7698 36.7644 51.8139 38.5808C49.8564 40.3987 48.7636 42.9332 48.7636 45.7888C48.7636 48.861 49.6735 51.1625 51.2904 52.9812C52.8917 54.7823 55.1559 56.0748 57.8013 57.2007C57.8018 57.2009 57.8022 57.2011 57.8027 57.2013L59.6133 57.9805C59.6138 57.9808 59.6144 57.981 59.6149 57.9813C61.285 58.7131 62.4471 59.2688 63.2022 59.9232C63.9131 60.5393 64.262 61.2428 64.262 62.344C64.262 63.2501 63.9242 63.9999 63.2784 64.5326C62.6225 65.0738 61.5999 65.4301 60.1711 65.4301C56.8857 65.4301 55.3198 63.244 53.76 60.6916L53.4888 60.2478L53.056 60.5363L47.3418 64.3458ZM5.08188 0.5H74.9259C77.4469 0.5 79.5001 2.55243 79.5001 5.08188V74.9258C79.5001 77.4468 77.4479 79.5 74.9184 79.5H5.08188C2.55291 79.5 0.5 77.4473 0.5 74.9182V5.08188C0.5 2.55293 2.55293 0.5 5.08188 0.5Z" stroke="#F5B32F"/>
</svg>
