<svg width="100" height="100" viewBox="0 0 100 100" fill="none" xmlns="http://www.w3.org/2000/svg">
<path d="M31.4524 38.0952V37.5952H30.9524H16.6667H16.1667V38.0952V83.3333V83.8333H16.6667H30.9524H31.4524V83.3333V38.0952ZM31.4524 24.9286V24.9161L31.4518 24.9036C31.3618 23.1036 30.5872 21.5038 29.251 20.3585C27.917 19.2151 26.0517 18.5476 23.8095 18.5476C19.3312 18.5476 16.1667 21.2424 16.1667 24.9286C16.1667 28.6005 19.3145 31.4524 23.8095 31.4524C26.1478 31.4524 28.0585 30.7485 29.3916 29.5643C30.7271 28.3779 31.4524 26.7347 31.4524 24.9286ZM83.3333 83.8333H83.8333V83.3333V57.7619C83.8333 51.0813 81.8867 46.031 78.6815 42.6472C75.4755 39.2627 71.0572 37.5952 66.2143 37.5952C61.4793 37.5952 57.9266 39.1587 55.5575 40.7258C54.3739 41.5088 53.4855 42.2926 52.8909 42.8834C52.8876 42.8867 52.8843 42.89 52.881 42.8933V38.0952V37.5952H52.381H38.0952H37.5952V38.0952V83.3333V83.8333H38.0952H52.381H52.881V83.3333H52.381C52.881 83.3333 52.881 83.3333 52.881 83.3331V83.3323V83.3311V83.3294V83.3272V83.3245V83.3213V83.3176V83.3135V83.3089V83.3038V83.2982V83.2922V83.2856V83.2786V83.2712V83.2633V83.2549V83.246V83.2367V83.2269V83.2167V83.206V83.1949V83.1833V83.1713V83.1588V83.1459V83.1325V83.1187V83.1044V83.0897V83.0746V83.0591V83.0431V83.0266V83.0098V82.9925V82.9748V82.9566V82.9381V82.9191V82.8997V82.8799V82.8597V82.8391V82.818V82.7966V82.7747V82.7524V82.7298V82.7067V82.6832V82.6593V82.6351V82.6104V82.5854V82.5599V82.5341V82.5079V82.4812V82.4543V82.4269V82.3991V82.371V82.3425V82.3136V82.2844V82.2548V82.2248V82.1944V82.1637V82.1326V82.1012V82.0694V82.0372V82.0047V81.9718V81.9386V81.905V81.8711V81.8368V81.8022V81.7673V81.732V81.6963V81.6604V81.6241V81.5874V81.5504V81.5131V81.4755V81.4376V81.3993V81.3607V81.3217V81.2825V81.2429V81.2031V81.1629V81.1224V81.0816V81.0404V80.999V80.9573V80.9153V80.8729V80.8303V80.7874V80.7441V80.7006V80.6568V80.6127V80.5683V80.5237V80.4787V80.4335V80.388V80.3422V80.2961V80.2497V80.2031V80.1562V80.1091V80.0617V80.014V79.966V79.9178V79.8693V79.8206V79.7716V79.7223V79.6728V79.6231V79.5731V79.5228V79.4723V79.4216V79.3706V79.3194V79.268V79.2163V79.1643V79.1122V79.0598V79.0072V78.9543V78.9012V78.848V78.7944V78.7407V78.6868V78.6326V78.5782V78.5236V78.4688V78.4138V78.3586V78.3031V78.2475V78.1917V78.1357V78.0794V78.023V77.9664V77.9096V77.8526V77.7954V77.738V77.6805V77.6227V77.5648V77.5067V77.4484V77.39V77.3313V77.2725V77.2135V77.1544V77.0951V77.0356V76.976V76.9162V76.8563V76.7962V76.7359V76.6755V76.6149V76.5542V76.4933V76.4323V76.3711V76.3098V76.2484V76.1868V76.1251V76.0633V76.0013V75.9392V75.8769V75.8145V75.752V75.6894V75.6267V75.5638V75.5008V75.4377V75.3745V75.3112V75.2477V75.1842V75.1205V75.0568V74.9929V74.9289V74.8649V74.8007V74.7364V74.6721V74.6076V74.5431V74.4784V74.4137V74.3489V74.284V74.2191V74.154V74.0889V74.0237V73.9584V73.8931V73.8276V73.7621V73.6966V73.631V73.5653V73.4995V73.4337V73.3679V73.3019V73.236V73.1699V73.1039V73.0377V72.9715V72.9053V72.8391V72.7728V72.7064V72.64V72.5736V72.5072V72.4407V72.3742V72.3076V72.2411V72.1745V72.1079V72.0412V71.9746V71.9079V71.8412V71.7745V71.7078V71.6411V71.5743V71.5076V71.4408V71.3741V71.3074V71.2406V71.1739V71.1071V71.0404V70.9737V70.907V70.8402V70.7736V70.7069V70.6402V70.5736V70.507V70.4404V70.3738V70.3073V70.2408V70.1743V70.1078V70.0414V69.975V69.9087V69.8424V69.7761V69.7099V69.6437V69.5776V69.5115V69.4455V69.3795V69.3136V69.2478V69.1819V69.1162V69.0505V68.9849V68.9193V68.8539V68.7884V68.7231V68.6578V68.5926V68.5275V68.4624V68.3975V68.3326V68.2678V68.2031V68.1384V68.0739V68.0094V67.9451V67.8808V67.8167V67.7526V67.6886V67.6248V67.561V67.4973V67.4338V67.3704V67.307V67.2438V67.1807V67.1177V67.0549V66.9921V66.9295V66.867V66.8046V66.7424V66.6803V66.6183V66.5565V66.4947V66.4332V66.3717V66.3104V66.2493V66.1883V66.1274V66.0667V66.0061V65.9457V65.8854V65.8253V65.7654V65.7056V65.646V65.5865V65.5272V65.4681V65.4091V65.3503V65.2917V65.2332V65.175V65.1169V65.0589V65.0012V64.9436V64.8863V64.8291V64.7721V64.7153V64.6587V64.6023V64.546V64.49V64.4342V64.3786V64.3231V64.2679V64.2129V64.1581V64.1035V64.0491V63.995V63.941V63.8873V63.8338V63.7805V63.7274V63.6746V63.622V63.5696V63.5174V63.4655V63.4138V63.3624V63.3112V63.2602V63.2095V63.159V63.1087V63.0587V63.009V62.9595V62.9103V62.8613V62.8125V62.7641V62.7159V62.6679V62.6202V62.5728V62.5256V62.4788V62.4321V62.3858V62.3397V62.2939V62.2484V62.2032V62.1583V62.1136V62.0692V62.0251V61.9813V61.9378V61.8946V61.8517V61.8091V61.7667V61.7247V61.683V61.6416V61.6005V61.5596V61.5192V61.479V61.4391V61.3995V61.3603V61.3214V61.2828V61.2445V61.2066V61.1689V61.1316V61.0947V61.058V61.0217V60.9858V60.9502V60.9149V60.8799V60.8453V60.8111V60.7771V60.7436V60.7104V60.6775V60.645V60.6128V60.581V60.5496V60.5185V60.4878V60.4575V60.4275V60.3979V60.3686V60.3398V60.3113V60.2831V60.2554V60.228V60.2011V60.1745V60.1483V60.1224V60.097V60.0719V60.0473V60.023V59.9992V59.9757V59.9526V59.93V59.9077V59.8859V59.8644V59.8434V59.8228V59.8025V59.7827V59.7634V59.7444V59.7258V59.7077V59.69V59.6727V59.6559V59.6395V59.6235V59.6079V59.5928V59.5781V59.5639V59.5501V59.5367V59.5238C52.881 57.2411 53.4588 54.9479 54.6965 53.2398C55.92 51.5513 57.8066 50.4048 60.5238 50.4048H60.7103C63.5341 50.451 65.469 51.5944 66.7121 53.263C67.9697 54.951 68.5476 57.2172 68.5476 59.5238V59.5344V59.5454V59.5569V59.5688V59.5812V59.594V59.6073V59.6211V59.6353V59.6499V59.665V59.6806V59.6966V59.713V59.7298V59.7471V59.7649V59.783V59.8016V59.8206V59.8401V59.8599V59.8802V59.9009V59.9221V59.9436V59.9656V59.988V60.0107V60.0339V60.0575V60.0816V60.106V60.1308V60.156V60.1816V60.2076V60.234V60.2608V60.288V60.3156V60.3435V60.3719V60.4006V60.4297V60.4592V60.4891V60.5193V60.55V60.5809V60.6123V60.644V60.6761V60.7086V60.7414V60.7746V60.8081V60.842V60.8762V60.9108V60.9458V60.9811V61.0167V61.0527V61.0891V61.1257V61.1628V61.2001V61.2378V61.2758V61.3142V61.3529V61.3919V61.4312V61.4709V61.5109V61.5512V61.5918V61.6327V61.674V61.7155V61.7574V61.7996V61.8421V61.8849V61.928V61.9714V62.0151V62.0591V62.1034V62.148V62.1929V62.2381V62.2836V62.3293V62.3753V62.4217V62.4683V62.5151V62.5623V62.6097V62.6574V62.7054V62.7536V62.8021V62.8509V62.9V62.9493V62.9988V63.0486V63.0987V63.149V63.1996V63.2505V63.3015V63.3529V63.4044V63.4563V63.5083V63.5606V63.6131V63.6659V63.7189V63.7721V63.8256V63.8793V63.9332V63.9874V64.0417V64.0963V64.1511V64.2061V64.2613V64.3168V64.3724V64.4283V64.4844V64.5407V64.5971V64.6538V64.7107V64.7678V64.825V64.8825V64.9402V64.998V65.0561V65.1143V65.1727V65.2313V65.29V65.349V65.4081V65.4674V65.5269V65.5865V65.6463V65.7063V65.7665V65.8268V65.8872V65.9479V66.0087V66.0696V66.1307V66.1919V66.2533V66.3149V66.3766V66.4384V66.5004V66.5625V66.6248V66.6872V66.7497V66.8124V66.8752V66.9381V67.0011V67.0643V67.1276V67.191V67.2546V67.3183V67.382V67.4459V67.5099V67.574V67.6383V67.7026V67.767V67.8316V67.8962V67.9609V68.0258V68.0907V68.1557V68.2208V68.286V68.3513V68.4167V68.4822V68.5477V68.6133V68.6791V68.7448V68.8107V68.8766V68.9426V69.0087V69.0748V69.141V69.2073V69.2736V69.34V69.4064V69.4729V69.5394V69.606V69.6727V69.7394V69.8061V69.8729V69.9397V70.0066V70.0735V70.1405V70.2074V70.2745V70.3415V70.4086V70.4757V70.5428V70.6099V70.6771V70.7443V70.8115V70.8787V70.946V71.0132V71.0805V71.1477V71.215V71.2823V71.3496V71.4169V71.4841V71.5514V71.6187V71.686V71.7532V71.8204V71.8877V71.9549V72.0221V72.0893V72.1564V72.2236V72.2907V72.3578V72.4249V72.4919V72.5589V72.6259V72.6928V72.7597V72.8266V72.8934V72.9601V73.0269V73.0936V73.1602V73.2268V73.2933V73.3598V73.4262V73.4926V73.5589V73.6251V73.6913V73.7574V73.8234V73.8894V73.9553V74.0211V74.0869V74.1526V74.2182V74.2837V74.3491V74.4145V74.4798V74.5449V74.61V74.675V74.7399V74.8047V74.8694V74.934V74.9985V75.0629V75.1272V75.1914V75.2555V75.3195V75.3833V75.4471V75.5107V75.5742V75.6376V75.7009V75.764V75.827V75.8899V75.9527V76.0153V76.0778V76.1401V76.2023V76.2644V76.3264V76.3881V76.4498V76.5113V76.5726V76.6339V76.6949V76.7558V76.8165V76.8771V76.9375V76.9978V77.0579V77.1178V77.1776V77.2372V77.2966V77.3558V77.4149V77.4738V77.5325V77.591V77.6494V77.7075V77.7655V77.8233V77.8809V77.9383V77.9955V78.0525V78.1094V78.166V78.2224V78.2786V78.3346V78.3904V78.446V78.5014V78.5565V78.6115V78.6662V78.7207V78.775V78.8291V78.883V78.9366V78.99V79.0431V79.0961V79.1488V79.2012V79.2534V79.3054V79.3572V79.4087V79.4599V79.5109V79.5617V79.6122V79.6624V79.7124V79.7622V79.8116V79.8609V79.9098V79.9585V80.0069V80.0551V80.103V80.1506V80.198V80.245V80.2918V80.3383V80.3846V80.4305V80.4762V80.5215V80.5666V80.6114V80.6559V80.7001V80.744V80.7877V80.831V80.874V80.9167V80.9591V81.0012V81.043V81.0844V81.1256V81.1664V81.207V81.2472V81.2871V81.3266V81.3659V81.4048V81.4433V81.4816V81.5195V81.5571V81.5944V81.6313V81.6678V81.7041V81.7399V81.7755V81.8107V81.8455V81.88V81.9141V81.9479V81.9814V82.0144V82.0471V82.0795V82.1115V82.1431V82.1743V82.2052V82.2357V82.2658V82.2956V82.3249V82.3539V82.3825V82.4108V82.4386V82.4661V82.4931V82.5198V82.5461V82.572V82.5975V82.6226V82.6472V82.6715V82.6954V82.7189V82.742V82.7646V82.7869V82.8087V82.8301V82.8511V82.8717V82.8919V82.9116V82.9309V82.9498V82.9683V82.9863V83.0039V83.021V83.0378V83.0541V83.0699V83.0853V83.1003V83.1148V83.1288V83.1424V83.1556V83.1683V83.1806V83.1924V83.2037V83.2146V83.225V83.2349V83.2444V83.2534V83.262V83.27V83.2776V83.2847V83.2914V83.2975V83.3032V83.3084V83.3131V83.3174V83.3211V83.3243V83.3271V83.3293V83.3311V83.3323V83.3331C68.5476 83.3333 68.5476 83.3333 69.0476 83.3333H68.5476V83.8333H69.0476H83.3333ZM11.9048 0.5H88.0952C94.3905 0.5 99.5 5.60948 99.5 11.9048V88.0952C99.5 94.3905 94.3905 99.5 88.0952 99.5H11.9048C5.60948 99.5 0.5 94.3905 0.5 88.0952V11.9048C0.5 5.60948 5.60948 0.5 11.9048 0.5Z" stroke="#F5B32F"/>
</svg>
