<svg width="89" height="80" viewBox="0 0 89 80" fill="none" xmlns="http://www.w3.org/2000/svg">
<path d="M2.81987 2.8199L2.81989 2.81988C4.37029 1.26946 6.22788 0.5 8.4206 0.5H35.556C37.7487 0.5 39.6062 1.26946 41.1568 2.8199L41.5103 2.46633L41.1568 2.8199C42.7073 4.37028 43.4767 6.22786 43.4767 8.4206V71.5793C43.4767 73.7721 42.7073 75.6295 41.1568 77.1801C39.6062 78.7307 37.7487 79.5 35.556 79.5H8.4206C6.22786 79.5 4.37028 78.7307 2.8199 77.1801C1.26937 75.6295 0.5 73.7721 0.5 71.5793V8.4206C0.5 6.22786 1.26937 4.37028 2.81987 2.8199ZM61.1864 32.0627C65.2101 31.2023 67.743 28.2751 69.2865 25.4358C70.1377 23.8699 70.6994 22.3132 71.0559 21.1043C71.3675 22.3656 71.8832 24.0023 72.7164 25.6333C74.0357 28.216 76.1784 30.8242 79.5829 31.8578C78.5766 32.1372 77.7017 32.511 76.9375 32.9573C75.3614 33.8778 74.2842 35.0901 73.5003 36.3603C72.7201 37.6243 72.228 38.9504 71.8241 40.0919C71.7906 40.1866 71.7578 40.2796 71.7257 40.3708C71.6107 40.6971 71.5036 41.0008 71.3994 41.2803C70.6276 38.0018 67.8745 35.6299 65.2584 34.0543C63.7852 33.1671 62.3178 32.5088 61.1864 32.0627ZM87.921 55.8461V79.4943L48.5812 79.0522L87.921 55.8461Z" stroke="#F5B32F"/>
</svg>
