<svg width="72" height="80" viewBox="0 0 72 80" fill="none" xmlns="http://www.w3.org/2000/svg">
<path d="M65.8973 14.7477L65.896 14.7358L65.8942 14.724C65.4694 11.9627 63.7516 9.77421 61.1251 9.11588C55.1063 7.51106 45.8603 5.5 36 5.5C26.1397 5.5 16.8937 7.51107 10.8749 9.11589C8.27793 9.76679 6.32178 11.937 6.10203 14.7545C5.70055 18.5711 5.5 22.5862 5.5 26.6C5.5 57.9047 28.7411 70.6314 35.7921 73.8547L35.9935 73.9468L36.197 73.8596C43.2626 70.8315 66.5 58.103 66.5 26.6C66.5 22.5838 66.2992 18.5663 65.8973 14.7477ZM9.52621 4.28381L9.52623 4.2839L9.53537 4.28133C15.9059 2.48961 25.6588 0.5 36 0.5C46.3417 0.5 56.0938 2.48982 62.2606 4.28017L62.2696 4.28279L62.2787 4.28507C66.8673 5.43221 70.1267 9.25464 70.7035 14.0588C71.1023 17.4487 71.5 21.6273 71.5 26.6C71.5 46.933 62.5804 60.1561 53.6627 68.3059C49.2001 72.3842 44.7365 75.1926 41.3894 76.9809C39.7163 77.8748 38.3234 78.513 37.351 78.9271C36.8648 79.1341 36.4839 79.285 36.2257 79.3837C36.1351 79.4184 36.0596 79.4466 36 79.4686C35.9404 79.4466 35.8649 79.4184 35.7743 79.3837C35.5161 79.285 35.1352 79.1341 34.649 78.9271C33.6766 78.513 32.2837 77.8748 30.6106 76.9809C27.2635 75.1926 22.7999 72.3842 18.3373 68.3059C9.41957 60.1561 0.5 46.933 0.5 26.6C0.5 21.8267 0.897832 17.4477 1.29658 14.0584L1.29757 14.05L1.29827 14.0415C1.68042 9.4558 5.12873 5.43098 9.52621 4.28381ZM34.5 58V57.7744L34.3308 57.6251C30.9542 54.6457 24.5 48.1734 24.5 38C24.5 30.1279 27.452 23.7234 30.416 19.2774C31.8974 17.0553 33.3786 15.3274 34.488 14.1564C35.0425 13.5711 35.5036 13.1254 35.8246 12.8273C35.8888 12.7677 35.9474 12.714 36 12.6663C36.0526 12.714 36.1112 12.7677 36.1754 12.8273C36.4964 13.1254 36.9575 13.5711 37.512 14.1564C38.6214 15.3274 40.1026 17.0553 41.584 19.2774C44.548 23.7234 47.5 30.1279 47.5 38C47.5 48.1734 41.0458 54.6457 37.6692 57.6251L37.5 57.7744V58V63.5H34.5V58Z" stroke="#F5B32F"/>
</svg>
