<svg width="80" height="80" viewBox="0 0 80 80" fill="none" xmlns="http://www.w3.org/2000/svg">
<mask id="path-1-inside-1_27_11744" fill="white">
<path fill-rule="evenodd" clip-rule="evenodd" d="M43.9888 0.0119469C29.1176 0.0119469 25.2592 11.3216 23.9627 17.8824C25.7435 17.117 30.133 16.0079 31.9919 16.0079H32.0699C36.6471 16.0391 38.0683 17.3357 38.9901 21.569C39.6619 24.6776 40.0055 29.5201 39.9899 32.004C39.9743 37.4398 38.6622 41.1889 37.6936 43.7038L37.3813 44.5164C37.147 45.1878 36.8655 45.8129 36.6155 46.3907C36.366 47.0002 36.1472 47.5313 35.9909 47.9999C36.9594 48.2183 37.7248 48.531 38.2403 48.7497L38.537 48.8901C38.631 48.9369 38.7246 48.9681 38.8026 49.0309C40.5053 50.0618 39.9899 52.436 39.9899 54.3107C39.9899 55.8727 40.0366 62.09 39.9899 68.0105C40.1618 70.5722 40.8176 72.7277 41.3803 74.3057C42.2081 76.5239 44.0668 79.8199 47.9878 79.9918C51.0806 80.1322 55.5483 78.5078 55.9858 72.0094V56.0135C56.2825 50.6709 62.4062 48.5466 63.9838 47.3749C63.765 47.0782 62.9216 44.4692 62.0311 43.0792L61.8595 42.7513C61.7343 42.4385 61.4064 41.8763 61.0001 41.1265C58.6415 36.8464 53.7052 25.8647 57.0791 20.2412C58.5475 17.773 59.9848 16.3516 63.9838 16.0079C62.3594 11.3684 57.8605 0.246248 43.9888 0.0119469ZM17.7455 0.0119469C10.263 0.293116 0 4.93258 0 20.0537C0 30.3011 6.96699 59.9969 17.9642 59.9969C18.4641 59.9969 18.964 59.8249 19.4794 59.5594C18.5109 58.7156 17.808 57.6223 17.7143 56.1851C17.5424 53.2798 19.6513 51.2335 24.197 50.0774C24.4157 50.0462 25.5716 49.7023 28.1179 48.2655C26.7744 47.6872 25.3686 46.9062 24.2126 45.7033C21.0415 42.3918 19.4326 37.7525 20.0262 33.5816C20.5885 29.5201 20.2605 25.5367 20.0887 23.4123L20.073 23.2092L20.0262 22.5062L19.9325 21.0379L20.0574 17.1014C21.3539 10.4468 24.072 5.29185 27.9929 1.73027C25.0249 0.761756 21.2915 -0.113021 17.7455 0.0119469ZM59.7193 0.0275422C58.9538 0.0431783 58.2352 0.105683 57.5322 0.183783C61.5468 2.97995 65.2335 7.49441 67.7484 14.6957L67.9204 20.1943C67.936 20.3818 67.9672 20.5692 67.9984 20.7567C68.1235 21.444 68.2795 22.3813 68.1547 23.506C67.9984 24.7869 67.842 26.0991 67.7952 27.4112C67.764 28.7078 67.936 29.9731 68.1235 31.3165C68.467 33.7064 68.2795 36.1277 67.5297 38.7207L66.358 42.7513C66.6707 43.4383 66.9674 44.1413 67.2641 44.8755C67.3265 45.0631 67.3893 45.2034 67.4361 45.3286L68.7482 47.1406C75.8088 40.9233 79.9797 27.9111 79.9797 14.5083C79.9797 11.9152 79.2767 9.91567 78.3709 8.75973C73.0127 1.90207 65.5926 -0.066154 59.7193 0.0275422ZM31.9919 20.0069C30.8672 20.0069 26.9932 20.9285 25.5248 21.5534L24.0877 22.1626C24.0564 22.1938 24.0251 22.225 24.0096 22.2563C24.0251 22.475 24.0564 22.7405 24.0877 23.0686C24.2595 25.3649 24.6031 29.6294 23.9783 34.1438C23.5565 37.1119 24.7594 40.4858 27.1181 42.9384C28.4615 44.3445 30.8672 45.2662 32.6165 45.6565C32.7261 45.3754 32.8197 45.1411 32.9448 44.8287C33.1636 44.2977 33.4135 43.735 33.6479 43.1104L33.9602 42.267C34.6632 40.439 35.9753 37.0183 35.9909 31.9882C36.0065 30.3324 35.8189 27.3175 35.4754 24.74C35.4286 24.8025 35.3974 24.8025 35.3662 24.8806C34.7724 25.4742 33.8506 26.0054 32.8353 25.8492C31.1796 25.5836 29.9143 23.5684 29.9924 22.8186C30.0861 22.0845 31.5076 21.6939 33.1636 21.9595C33.7258 22.0532 34.2569 22.225 34.6944 22.4125C34.8504 22.5375 34.9755 22.6156 35.1159 22.7093C35.1003 22.6156 35.1003 22.5062 35.0691 22.4125C34.6944 20.6473 34.3821 20.3193 34.3665 20.3037C34.3505 20.288 33.929 20.0225 31.9919 20.0069ZM63.9214 20.0537C61.9843 20.288 61.4376 20.8036 60.7346 21.9439C62.0935 21.9439 63.0776 22.3969 63.1872 23.2404C63.2963 23.959 62.6873 24.6463 62.4218 24.9119C61.8595 25.443 61.1565 25.8023 60.4535 25.8804C60.3283 25.9116 60.2035 25.9116 60.0628 25.9116C60.0316 25.9116 60.016 25.896 59.9848 25.896C60.2191 29.192 61.7032 33.644 63.687 37.6118C64.2337 35.7059 64.4525 33.8471 64.1713 31.8789C63.9682 30.4261 63.7494 28.9265 63.7962 27.2863C63.859 25.8023 64.015 24.412 64.1713 23.053C64.2961 22.0064 63.8902 21.0379 63.9214 20.0537ZM72.7004 50.1242C72.388 50.0774 71.9506 50.1086 71.4195 50.2178C68.9045 50.7336 67.2329 50.874 65.9989 50.796C65.5614 51.0928 65.1083 51.3739 64.546 51.6862C62.2966 52.9203 60.2971 54.2012 60.0316 55.9979V58.3253C62.6717 58.4501 66.202 56.8101 68.2327 55.8727C72.0597 54.1076 74.9342 50.4209 72.7004 50.1242ZM31.3358 51.046C29.1333 52.358 26.6495 53.6545 24.9937 53.9984C19.1202 55.5604 22.7599 57.388 24.8375 57.5911C27.0556 58.1378 32.4918 59.3718 35.9909 56.5134C35.9909 56.5134 35.9909 56.5134 35.9909 56.4978V54.3107C35.9909 53.8888 36.0065 53.4669 36.0377 53.0143C36.0377 52.7799 36.0533 52.4672 36.0533 52.1861C35.7877 52.0769 35.4598 51.9833 35.1003 51.8893L31.3358 51.046Z"/>
</mask>
<path fill-rule="evenodd" clip-rule="evenodd" d="M43.9888 0.0119469C29.1176 0.0119469 25.2592 11.3216 23.9627 17.8824C25.7435 17.117 30.133 16.0079 31.9919 16.0079H32.0699C36.6471 16.0391 38.0683 17.3357 38.9901 21.569C39.6619 24.6776 40.0055 29.5201 39.9899 32.004C39.9743 37.4398 38.6622 41.1889 37.6936 43.7038L37.3813 44.5164C37.147 45.1878 36.8655 45.8129 36.6155 46.3907C36.366 47.0002 36.1472 47.5313 35.9909 47.9999C36.9594 48.2183 37.7248 48.531 38.2403 48.7497L38.537 48.8901C38.631 48.9369 38.7246 48.9681 38.8026 49.0309C40.5053 50.0618 39.9899 52.436 39.9899 54.3107C39.9899 55.8727 40.0366 62.09 39.9899 68.0105C40.1618 70.5722 40.8176 72.7277 41.3803 74.3057C42.2081 76.5239 44.0668 79.8199 47.9878 79.9918C51.0806 80.1322 55.5483 78.5078 55.9858 72.0094V56.0135C56.2825 50.6709 62.4062 48.5466 63.9838 47.3749C63.765 47.0782 62.9216 44.4692 62.0311 43.0792L61.8595 42.7513C61.7343 42.4385 61.4064 41.8763 61.0001 41.1265C58.6415 36.8464 53.7052 25.8647 57.0791 20.2412C58.5475 17.773 59.9848 16.3516 63.9838 16.0079C62.3594 11.3684 57.8605 0.246248 43.9888 0.0119469ZM17.7455 0.0119469C10.263 0.293116 0 4.93258 0 20.0537C0 30.3011 6.96699 59.9969 17.9642 59.9969C18.4641 59.9969 18.964 59.8249 19.4794 59.5594C18.5109 58.7156 17.808 57.6223 17.7143 56.1851C17.5424 53.2798 19.6513 51.2335 24.197 50.0774C24.4157 50.0462 25.5716 49.7023 28.1179 48.2655C26.7744 47.6872 25.3686 46.9062 24.2126 45.7033C21.0415 42.3918 19.4326 37.7525 20.0262 33.5816C20.5885 29.5201 20.2605 25.5367 20.0887 23.4123L20.073 23.2092L20.0262 22.5062L19.9325 21.0379L20.0574 17.1014C21.3539 10.4468 24.072 5.29185 27.9929 1.73027C25.0249 0.761756 21.2915 -0.113021 17.7455 0.0119469ZM59.7193 0.0275422C58.9538 0.0431783 58.2352 0.105683 57.5322 0.183783C61.5468 2.97995 65.2335 7.49441 67.7484 14.6957L67.9204 20.1943C67.936 20.3818 67.9672 20.5692 67.9984 20.7567C68.1235 21.444 68.2795 22.3813 68.1547 23.506C67.9984 24.7869 67.842 26.0991 67.7952 27.4112C67.764 28.7078 67.936 29.9731 68.1235 31.3165C68.467 33.7064 68.2795 36.1277 67.5297 38.7207L66.358 42.7513C66.6707 43.4383 66.9674 44.1413 67.2641 44.8755C67.3265 45.0631 67.3893 45.2034 67.4361 45.3286L68.7482 47.1406C75.8088 40.9233 79.9797 27.9111 79.9797 14.5083C79.9797 11.9152 79.2767 9.91567 78.3709 8.75973C73.0127 1.90207 65.5926 -0.066154 59.7193 0.0275422ZM31.9919 20.0069C30.8672 20.0069 26.9932 20.9285 25.5248 21.5534L24.0877 22.1626C24.0564 22.1938 24.0251 22.225 24.0096 22.2563C24.0251 22.475 24.0564 22.7405 24.0877 23.0686C24.2595 25.3649 24.6031 29.6294 23.9783 34.1438C23.5565 37.1119 24.7594 40.4858 27.1181 42.9384C28.4615 44.3445 30.8672 45.2662 32.6165 45.6565C32.7261 45.3754 32.8197 45.1411 32.9448 44.8287C33.1636 44.2977 33.4135 43.735 33.6479 43.1104L33.9602 42.267C34.6632 40.439 35.9753 37.0183 35.9909 31.9882C36.0065 30.3324 35.8189 27.3175 35.4754 24.74C35.4286 24.8025 35.3974 24.8025 35.3662 24.8806C34.7724 25.4742 33.8506 26.0054 32.8353 25.8492C31.1796 25.5836 29.9143 23.5684 29.9924 22.8186C30.0861 22.0845 31.5076 21.6939 33.1636 21.9595C33.7258 22.0532 34.2569 22.225 34.6944 22.4125C34.8504 22.5375 34.9755 22.6156 35.1159 22.7093C35.1003 22.6156 35.1003 22.5062 35.0691 22.4125C34.6944 20.6473 34.3821 20.3193 34.3665 20.3037C34.3505 20.288 33.929 20.0225 31.9919 20.0069ZM63.9214 20.0537C61.9843 20.288 61.4376 20.8036 60.7346 21.9439C62.0935 21.9439 63.0776 22.3969 63.1872 23.2404C63.2963 23.959 62.6873 24.6463 62.4218 24.9119C61.8595 25.443 61.1565 25.8023 60.4535 25.8804C60.3283 25.9116 60.2035 25.9116 60.0628 25.9116C60.0316 25.9116 60.016 25.896 59.9848 25.896C60.2191 29.192 61.7032 33.644 63.687 37.6118C64.2337 35.7059 64.4525 33.8471 64.1713 31.8789C63.9682 30.4261 63.7494 28.9265 63.7962 27.2863C63.859 25.8023 64.015 24.412 64.1713 23.053C64.2961 22.0064 63.8902 21.0379 63.9214 20.0537ZM72.7004 50.1242C72.388 50.0774 71.9506 50.1086 71.4195 50.2178C68.9045 50.7336 67.2329 50.874 65.9989 50.796C65.5614 51.0928 65.1083 51.3739 64.546 51.6862C62.2966 52.9203 60.2971 54.2012 60.0316 55.9979V58.3253C62.6717 58.4501 66.202 56.8101 68.2327 55.8727C72.0597 54.1076 74.9342 50.4209 72.7004 50.1242ZM31.3358 51.046C29.1333 52.358 26.6495 53.6545 24.9937 53.9984C19.1202 55.5604 22.7599 57.388 24.8375 57.5911C27.0556 58.1378 32.4918 59.3718 35.9909 56.5134C35.9909 56.5134 35.9909 56.5134 35.9909 56.4978V54.3107C35.9909 53.8888 36.0065 53.4669 36.0377 53.0143C36.0377 52.7799 36.0533 52.4672 36.0533 52.1861C35.7877 52.0769 35.4598 51.9833 35.1003 51.8893L31.3358 51.046Z" stroke="#F5B32F" stroke-width="2" mask="url(#path-1-inside-1_27_11744)"/>
</svg>
