<svg width="80" height="80" viewBox="0 0 80 80" fill="none" xmlns="http://www.w3.org/2000/svg">
<path d="M61.7505 19.1935L61.5548 19.0061C60.4261 17.9255 58.8939 17.2608 57.2077 17.2608C53.7358 17.2608 50.9217 20.0752 50.9217 23.547C50.9217 24.9558 51.3851 26.2564 52.1678 27.3046C52.1526 27.2975 52.1357 27.2898 52.1172 27.2814C52.0253 27.2399 51.894 27.1834 51.7313 27.1209C51.4071 26.9965 50.9524 26.8462 50.433 26.7454C49.4153 26.548 48.0328 26.5203 46.945 27.4119C46.0279 28.1634 43.1955 30.5238 40.595 32.694C39.2941 33.7796 38.0505 34.8184 37.132 35.5857L36.0318 36.5051L35.7274 36.7596L35.6476 36.8262L35.6272 36.8433L35.622 36.8476L35.6207 36.8487L35.6204 36.849C35.6203 36.849 35.6203 36.8491 35.941 37.2327L35.6203 36.8491L35.2407 37.1664L35.4536 37.4266L35.1035 37.7417L32.5877 40.0057L31.6941 40.8099L32.8944 40.8766L37.4226 41.1282L38.2371 41.1735L38.153 41.2378L36.0146 42.8728L34.7656 43.8278L36.3368 43.7697L39.7332 43.644L40.5523 43.6137L40.8359 43.9629L41.224 43.6477L40.8359 43.9629L40.836 43.963L40.8362 43.9633L40.8369 43.9642L40.8394 43.9672L40.8486 43.9784L40.8831 44.0204C40.9131 44.0567 40.9566 44.109 41.0115 44.1741C41.1211 44.3042 41.2766 44.4856 41.4604 44.6922C41.8253 45.1022 42.3128 45.623 42.7803 46.0353L43.1024 46.3195L43.4319 46.0438C45.018 44.7166 47.6601 41.592 49.876 38.8437C50.9912 37.4606 52.0095 36.1587 52.7489 35.2027C53.1187 34.7246 53.4188 34.3329 53.6266 34.0605C53.7305 33.9244 53.8114 33.818 53.8663 33.7457L53.9288 33.6631L53.9449 33.6419L53.949 33.6365L53.95 33.6351L53.9503 33.6347C53.9504 33.6346 53.9504 33.6346 53.5513 33.3333L53.9504 33.6346L53.2305 32.9499L40.9031 43.2642L40.6453 43.4799L40.4289 43.2204L40.663 43.0261L40.3437 42.6413C40.663 43.0261 40.6631 43.026 40.6631 43.026L40.6636 43.0256L40.6653 43.0242L40.6721 43.0185L40.6991 42.9961L40.8043 42.9088L41.2042 42.5769L42.6364 41.3885C43.8244 40.4027 45.4151 39.0829 47.0259 37.7472C50.2511 35.0726 53.5471 32.3415 53.8635 32.0882C54.2184 31.8041 54.5915 31.398 54.7191 30.8953C54.7857 30.6329 54.7833 30.3495 54.6802 30.0648C54.5786 29.7841 54.3898 29.5315 54.1294 29.3068L61.7505 19.1935ZM61.7505 19.1935L61.7647 19.178L61.8622 19.3004L61.9075 19.3438L61.9017 19.3501L62.1275 19.6336C62.9824 20.7072 63.494 22.068 63.494 23.547C63.494 25.0887 62.9381 26.502 62.0167 27.5955L61.879 27.7588L61.894 27.7723L61.7712 27.8868L61.6866 27.9871L61.6748 27.9766L61.4936 28.1456C60.3711 29.1921 58.8639 29.8332 57.2077 29.8332C55.4278 29.8332 53.8208 29.0935 52.6772 27.9048L52.3724 28.1736L38.536 40.3747L38.1556 40.7102L38.4165 41.0363L38.4353 41.0219M61.7505 19.1935L38.4353 41.0219M38.4353 41.0219L38.2718 40.8137L38.6334 40.5018L51.4634 29.4324L51.4785 29.4194L51.4947 29.4075L51.79 29.811C51.4947 29.4075 51.4948 29.4074 51.495 29.4073L51.4953 29.4071L51.4961 29.4065L51.4979 29.4052L51.503 29.4016L51.5181 29.3909C51.5305 29.3823 51.5473 29.3708 51.5683 29.3572C51.6101 29.3298 51.6688 29.2933 51.7413 29.2526C51.8848 29.1722 52.0903 29.0715 52.3323 28.9969C52.8076 28.8503 53.5202 28.7809 54.1293 29.3067L38.4353 41.0219ZM52.2427 27.4028C52.2427 27.4029 52.2427 27.4029 52.2427 27.4029L52.0417 27.7986C52.1589 27.5679 52.2154 27.4565 52.2427 27.4028ZM42.5723 46.7794L42.9248 46.449L42.6066 46.0854L40.8456 44.0731L40.6962 43.9023H40.4693H34.935H34.7637L34.6283 44.0074L22.8043 53.1898L22.4424 53.4708L22.6908 53.8557L25.2066 57.7551L25.8402 58.7371L26.1129 57.6007L26.7975 54.7484C26.8184 54.7429 26.8403 54.7372 26.8632 54.7312C27.0923 54.6712 27.422 54.5839 27.825 54.4743C28.6306 54.255 29.7307 53.9459 30.9071 53.5869C32.0826 53.2281 33.3393 52.8181 34.4567 52.3967C35.564 51.9792 36.5701 51.5375 37.2218 51.1096L37.2218 51.1096C38.4527 50.3011 39.7924 49.2157 40.8169 48.34C41.3309 47.9007 41.769 47.5113 42.0787 47.2315C42.2336 47.0916 42.3566 46.979 42.441 46.9012C42.4832 46.8623 42.5158 46.8321 42.538 46.8115L42.5633 46.7879L42.5699 46.7817L42.5716 46.7801L42.5721 46.7796L42.5722 46.7795C42.5723 46.7794 42.5723 46.7794 42.2303 46.4147L42.5723 46.7794ZM22.3352 54.3138L22.0591 53.9505L21.6722 54.1923L16.6407 57.337L15.1623 58.261H16.9057H24.3271H25.3351L24.7252 57.4585L22.3352 54.3138ZM0.5 40C0.5 18.1848 18.1848 0.5 40 0.5C61.8152 0.5 79.5 18.1848 79.5 40C79.5 61.8152 61.8152 79.5 40 79.5C18.1848 79.5 0.5 61.8152 0.5 40Z" stroke="#F5B32F"/>
</svg>
