<svg width="76" height="80" viewBox="0 0 76 80" fill="none" xmlns="http://www.w3.org/2000/svg">
<mask id="path-1-inside-1_27_11701" fill="white">
<path fill-rule="evenodd" clip-rule="evenodd" d="M0.0535978 76.4874V3.21025C0.0535978 3.21025 -0.13013 0.200252 3.48821 0.0616003C7.10648 -0.0770004 11.5023 0.0616003 11.5023 0.0616003C11.5023 0.0616003 15.5025 1.0755 15.5093 3.21025C15.5161 5.34501 15.5093 28.6855 15.5093 28.6855C15.5093 28.6855 15.1197 31.9317 18.0853 32.1203C21.0508 32.3089 25.527 32.1203 25.527 32.1203C25.527 32.1203 28.2542 32.5585 28.3891 28.6855C28.5241 24.8125 28.3891 3.21025 28.3891 3.21025C28.3891 3.21025 28.7909 0.196946 31.8237 0.0616513C34.8565 -0.0736434 40.9827 0.0616513 40.9827 0.0616513C40.9827 0.0616513 44.7161 1.2966 44.7034 3.21025C44.6911 5.12391 44.7034 28.6855 44.7034 28.6855C44.7034 28.6855 44.3355 32.1243 48.4245 32.1203C52.5132 32.1164 71.0355 32.1203 71.0355 32.1203C71.0355 32.1203 75.0189 31.8409 75.0426 36.414C75.0662 40.987 75.0426 76.4874 75.0426 76.4874C75.0426 76.4874 75.7229 79.7467 71.0355 79.9221C66.3482 80.0974 3.48821 79.9221 3.48821 79.9221C3.48821 79.9221 1.51111 80.2931 0.626014 79.3497C-0.259083 78.4064 0.0535978 76.4874 0.0535978 76.4874ZM48.7098 48.436H56.7252C57.6735 48.436 58.4828 48.771 59.1534 49.4417C59.824 50.1124 60.1593 50.9217 60.1593 51.8704V60.4584C60.1593 61.4067 59.824 62.2164 59.1534 62.8871C58.4828 63.5574 57.6735 63.8927 56.7252 63.8927H48.7098C47.7615 63.8927 46.9523 63.5574 46.2817 62.8871C45.611 62.2164 45.2757 61.4067 45.2757 60.4584V51.8704C45.2757 50.9217 45.611 50.1124 46.2817 49.4417C46.9523 48.771 47.7615 48.436 48.7098 48.436Z"/>
</mask>
<path d="M0.0535978 76.4874L1.04058 76.6482L1.0536 76.5683V76.4874H0.0535978ZM0.0535978 3.21025H1.0536V3.17976L1.05174 3.14933L0.0535978 3.21025ZM3.48821 0.0616003L3.44993 -0.937667L3.44992 -0.937666L3.48821 0.0616003ZM11.5023 0.0616003L11.748 -0.907748L11.6425 -0.934475L11.5338 -0.937903L11.5023 0.0616003ZM15.5093 3.21025L14.5093 3.21344L15.5093 3.21025ZM15.5093 28.6855L16.5022 28.8047L16.5093 28.7454L16.5093 28.6858L15.5093 28.6855ZM18.0853 32.1203L18.0218 33.1183H18.0218L18.0853 32.1203ZM25.527 32.1203L25.6856 31.133L25.5858 31.117L25.4849 31.1212L25.527 32.1203ZM28.3891 28.6855L29.3885 28.7203L28.3891 28.6855ZM28.3891 3.21025L27.3979 3.07808L27.3887 3.14699L27.3892 3.2165L28.3891 3.21025ZM31.8237 0.0616513L31.8683 1.06066H31.8683L31.8237 0.0616513ZM40.9827 0.0616513L41.2967 -0.887756L41.1545 -0.934798L41.0048 -0.938105L40.9827 0.0616513ZM44.7034 3.21025L43.7034 3.20364V3.20381L44.7034 3.21025ZM44.7034 28.6855L45.6978 28.7919L45.7035 28.7386L45.7034 28.685L44.7034 28.6855ZM48.4245 32.1203L48.4235 31.1203H48.4235L48.4245 32.1203ZM71.0355 32.1203L71.0353 33.1203L71.0705 33.1203L71.1055 33.1179L71.0355 32.1203ZM75.0426 36.414L74.0426 36.4192V36.4192L75.0426 36.414ZM75.0426 76.4874L74.0426 76.4867L74.0425 76.5903L74.0637 76.6917L75.0426 76.4874ZM3.48821 79.9221L3.491 78.9221L3.39658 78.9218L3.30378 78.9392L3.48821 79.9221ZM0.626014 79.3497L-0.103245 80.034H-0.103244L0.626014 79.3497ZM59.1534 62.8871L59.8603 63.5943L59.8605 63.5941L59.1534 62.8871ZM46.2817 62.8871L45.5745 63.5941L45.5747 63.5943L46.2817 62.8871ZM1.0536 76.4874V3.21025H-0.946402V76.4874H1.0536ZM0.0535978 3.21025C1.05174 3.14933 1.05177 3.1499 1.05181 3.15047C1.05182 3.15064 1.05185 3.15119 1.05187 3.15154C1.05191 3.15224 1.05195 3.15289 1.05199 3.1535C1.05205 3.15472 1.05211 3.15577 1.05216 3.15666C1.05225 3.15844 1.0523 3.15955 1.05232 3.16003C1.05236 3.16099 1.05228 3.15942 1.0522 3.15548C1.05203 3.14759 1.05184 3.13045 1.05246 3.10538C1.05371 3.05488 1.05819 2.97465 1.07201 2.87472C1.10017 2.67099 1.16378 2.40974 1.29838 2.15473C1.53 1.71595 2.05666 1.11719 3.5265 1.06087L3.44992 -0.937666C1.30142 -0.855338 0.110777 0.120226 -0.47033 1.22111C-0.742086 1.73594 -0.858694 2.23586 -0.909151 2.60083C-0.934649 2.78526 -0.944087 2.94126 -0.946924 3.05591C-0.948347 3.11342 -0.948122 3.16109 -0.947363 3.19735C-0.946983 3.2155 -0.946468 3.23084 -0.945954 3.2432C-0.945697 3.24938 -0.94544 3.25481 -0.945199 3.25948C-0.945079 3.26182 -0.944963 3.26396 -0.944853 3.26591C-0.944798 3.26689 -0.944745 3.26782 -0.944693 3.26869C-0.944668 3.26913 -0.944631 3.26975 -0.944618 3.26997C-0.944581 3.27058 -0.944545 3.27118 0.0535978 3.21025ZM3.52648 1.06087C5.31162 0.992487 7.29637 0.992312 8.84093 1.00956C9.61186 1.01817 10.2704 1.03109 10.7358 1.04184C10.9685 1.04722 11.1528 1.05205 11.2787 1.05553C11.3416 1.05727 11.39 1.05868 11.4224 1.05964C11.4386 1.06012 11.4509 1.06049 11.459 1.06074C11.463 1.06086 11.4661 1.06096 11.468 1.06102C11.469 1.06105 11.4697 1.06107 11.4702 1.06109C11.4704 1.06109 11.4706 1.0611 11.4707 1.0611C11.4707 1.0611 11.4708 1.0611 11.4708 1.0611C11.4708 1.0611 11.4708 1.0611 11.5023 0.0616003C11.5338 -0.937903 11.5338 -0.937904 11.5337 -0.937906C11.5337 -0.937908 11.5336 -0.93791 11.5335 -0.937913C11.5333 -0.937918 11.5331 -0.937926 11.5328 -0.937935C11.5322 -0.937954 11.5313 -0.937982 11.5302 -0.938017C11.5279 -0.938088 11.5245 -0.938191 11.5202 -0.938325C11.5114 -0.938592 11.4986 -0.938982 11.4817 -0.939483C11.448 -0.940483 11.3983 -0.941923 11.334 -0.943702C11.2053 -0.94726 11.018 -0.952172 10.782 -0.957624C10.3102 -0.968525 9.64358 -0.981598 8.86327 -0.990313C7.30536 -1.00771 5.28307 -1.00789 3.44993 -0.937667L3.52648 1.06087ZM11.5023 0.0616003C11.2566 1.03095 11.2564 1.03089 11.2562 1.03084C11.2561 1.03083 11.2559 1.03078 11.2558 1.03075C11.2556 1.0307 11.2555 1.03067 11.2554 1.03065C11.2553 1.03061 11.2553 1.03063 11.2557 1.03071C11.2563 1.03087 11.2578 1.03127 11.2603 1.03191C11.2652 1.03319 11.2736 1.03543 11.2854 1.03864C11.3091 1.04505 11.346 1.05529 11.3943 1.06937C11.4911 1.09758 11.6325 1.14093 11.8036 1.19948C12.1489 1.31767 12.5996 1.49266 13.042 1.72267C13.4923 1.95672 13.886 2.22326 14.1558 2.5069C14.4207 2.78531 14.5087 3.016 14.5093 3.21344L16.5093 3.20707C16.5066 2.33713 16.092 1.64055 15.6049 1.12846C15.1228 0.621585 14.5152 0.234381 13.9645 -0.0518799C13.4061 -0.342189 12.8563 -0.5541 12.4513 -0.692729C12.2472 -0.762582 12.0761 -0.81512 11.9541 -0.850697C11.893 -0.868509 11.844 -0.882138 11.809 -0.891621C11.7915 -0.896365 11.7775 -0.900077 11.7673 -0.902762C11.7621 -0.904104 11.758 -0.905191 11.7547 -0.906022C11.7531 -0.906437 11.7517 -0.906788 11.7506 -0.907076C11.7501 -0.90722 11.7496 -0.907348 11.7491 -0.90746C11.7489 -0.907516 11.7486 -0.907588 11.7485 -0.907616C11.7482 -0.907684 11.748 -0.907748 11.5023 0.0616003ZM14.5093 3.21344C14.5127 4.27863 14.5127 10.6448 14.5119 16.7483C14.5115 19.7992 14.5108 22.7834 14.5103 25.005C14.51 26.1157 14.5098 27.0358 14.5096 27.6781C14.5095 27.9993 14.5095 28.2511 14.5094 28.4226C14.5094 28.5083 14.5094 28.574 14.5094 28.6182C14.5094 28.6403 14.5093 28.6571 14.5093 28.6683C14.5093 28.6739 14.5093 28.6781 14.5093 28.681C14.5093 28.6824 14.5093 28.6834 14.5093 28.6841C14.5093 28.6845 14.5093 28.6848 14.5093 28.6849C14.5093 28.6851 14.5093 28.6852 15.5093 28.6855C16.5093 28.6858 16.5093 28.6857 16.5093 28.6855C16.5093 28.6853 16.5093 28.6851 16.5093 28.6847C16.5093 28.684 16.5093 28.6829 16.5093 28.6815C16.5093 28.6787 16.5093 28.6745 16.5093 28.6689C16.5093 28.6576 16.5094 28.6409 16.5094 28.6188C16.5094 28.5745 16.5094 28.5089 16.5094 28.4231C16.5095 28.2517 16.5095 27.9999 16.5096 27.6787C16.5098 27.0363 16.51 26.1162 16.5103 25.0054C16.5108 22.7839 16.5115 19.7996 16.5119 16.7485C16.5127 10.6481 16.5127 4.27663 16.5093 3.20707L14.5093 3.21344ZM15.5093 28.6855C14.5165 28.5663 14.5164 28.5668 14.5164 28.5673C14.5163 28.5674 14.5163 28.5679 14.5162 28.5682C14.5162 28.5689 14.5161 28.5697 14.516 28.5705C14.5158 28.5721 14.5156 28.5739 14.5154 28.5758C14.5149 28.5798 14.5144 28.5846 14.5138 28.5902C14.5126 28.6014 14.5112 28.6157 14.5097 28.633C14.5066 28.6675 14.503 28.714 14.4999 28.7709C14.4937 28.8843 14.4894 29.041 14.4953 29.2276C14.507 29.595 14.5595 30.1074 14.7348 30.6432C14.9108 31.181 15.2229 31.7781 15.7756 32.2587C16.3391 32.7487 17.0858 33.0588 18.0218 33.1183L18.1488 31.1223C17.602 31.0876 17.2854 30.9212 17.0879 30.7494C16.8795 30.5683 16.7329 30.3185 16.6356 30.0212C16.5377 29.7218 16.5022 29.4109 16.4943 29.1637C16.4904 29.043 16.4934 28.9446 16.4969 28.8798C16.4987 28.8476 16.5005 28.8242 16.5017 28.811C16.5023 28.8045 16.5027 28.8006 16.5028 28.7994C16.5029 28.7989 16.5029 28.799 16.5028 28.7999C16.5027 28.8003 16.5027 28.8009 16.5026 28.8017C16.5025 28.8021 16.5025 28.8025 16.5024 28.803C16.5024 28.8033 16.5023 28.8037 16.5023 28.8038C16.5023 28.8042 16.5022 28.8047 15.5093 28.6855ZM18.0218 33.1183C19.5457 33.2152 21.4386 33.2146 22.934 33.1909C23.6853 33.179 24.3429 33.1612 24.8129 33.1464C25.0479 33.1389 25.2363 33.1322 25.3662 33.1274C25.4311 33.1249 25.4815 33.123 25.5158 33.1216C25.533 33.1209 25.5461 33.1204 25.555 33.12C25.5595 33.1198 25.5629 33.1197 25.5653 33.1196C25.5664 33.1196 25.5674 33.1195 25.568 33.1195C25.5683 33.1195 25.5686 33.1195 25.5687 33.1195C25.5688 33.1195 25.5689 33.1195 25.569 33.1194C25.569 33.1194 25.5691 33.1194 25.527 32.1203C25.4849 31.1212 25.4849 31.1212 25.4849 31.1212C25.4849 31.1212 25.4849 31.1212 25.4848 31.1212C25.4847 31.1212 25.4846 31.1212 25.4843 31.1212C25.4839 31.1213 25.4832 31.1213 25.4822 31.1213C25.4802 31.1214 25.4772 31.1215 25.4731 31.1217C25.4649 31.122 25.4525 31.1225 25.4362 31.1232C25.4035 31.1245 25.3548 31.1264 25.2915 31.1288C25.1651 31.1335 24.9805 31.1401 24.7496 31.1474C24.2877 31.162 23.6409 31.1795 22.9024 31.1912C21.4184 31.2147 19.5904 31.214 18.1488 31.1223L18.0218 33.1183ZM25.527 32.1203C25.3684 33.1077 25.369 33.1078 25.3697 33.1079C25.37 33.1079 25.3707 33.108 25.3712 33.1081C25.3722 33.1083 25.3732 33.1084 25.3743 33.1086C25.3764 33.1089 25.3788 33.1093 25.3813 33.1097C25.3863 33.1104 25.392 33.1112 25.3985 33.1121C25.4113 33.1139 25.427 33.1159 25.4452 33.118C25.4817 33.1221 25.529 33.1265 25.5855 33.1299C25.6982 33.1365 25.8505 33.139 26.0304 33.1254C26.3868 33.0986 26.8764 33.0066 27.38 32.7366C28.4664 32.1541 29.3119 30.92 29.3885 28.7203L27.3897 28.6507C27.3315 30.3239 26.7459 30.8072 26.435 30.974C26.2399 31.0786 26.0392 31.1191 25.88 31.1311C25.8021 31.137 25.7404 31.1355 25.7033 31.1333C25.685 31.1323 25.6736 31.131 25.6701 31.1306C25.6683 31.1304 25.6686 31.1305 25.6712 31.1308C25.6724 31.131 25.6742 31.1312 25.6766 31.1316C25.6778 31.1318 25.6792 31.132 25.6807 31.1322C25.6814 31.1323 25.6822 31.1325 25.683 31.1326C25.6834 31.1326 25.6841 31.1327 25.6843 31.1328C25.6849 31.1329 25.6856 31.133 25.527 32.1203ZM29.3885 28.7203C29.4568 26.7597 29.4566 20.3654 29.4397 14.4926C29.4313 11.5493 29.4186 8.72724 29.4081 6.64106C29.4028 5.59795 29.3981 4.73875 29.3947 4.14031C29.3929 3.84109 29.3916 3.60705 29.3906 3.4478C29.3901 3.36818 29.3898 3.30725 29.3895 3.26621C29.3894 3.2457 29.3893 3.23016 29.3892 3.21974C29.3892 3.21453 29.3892 3.2106 29.3891 3.20797C29.3891 3.20666 29.3891 3.20567 29.3891 3.20501C29.3891 3.20468 29.3891 3.20443 29.3891 3.20426C29.3891 3.2041 29.3891 3.20401 28.3891 3.21025C27.3892 3.2165 27.3892 3.21658 27.3892 3.21674C27.3892 3.2169 27.3892 3.21715 27.3892 3.21747C27.3892 3.21812 27.3892 3.2191 27.3892 3.22041C27.3892 3.22302 27.3892 3.22692 27.3893 3.23211C27.3893 3.24249 27.3894 3.25799 27.3895 3.27847C27.3898 3.31942 27.3902 3.38027 27.3906 3.4598C27.3916 3.61888 27.393 3.85274 27.3947 4.15177C27.3981 4.74982 27.4029 5.60856 27.4081 6.65117C27.4187 8.73644 27.4313 11.557 27.4397 14.4984C27.4566 20.395 27.4564 26.7383 27.3897 28.6507L29.3885 28.7203ZM28.3891 3.21025C29.3804 3.34243 29.3803 3.34289 29.3802 3.34335C29.3802 3.34348 29.3802 3.34393 29.3801 3.3442C29.3801 3.34475 29.38 3.34525 29.3799 3.34571C29.3798 3.34663 29.3797 3.34738 29.3796 3.34796C29.3794 3.34912 29.3794 3.3496 29.3794 3.34943C29.3795 3.34909 29.3799 3.34614 29.3808 3.34076C29.3826 3.32997 29.3862 3.30958 29.392 3.28094C29.4038 3.22341 29.4244 3.13415 29.4574 3.02365C29.5244 2.79956 29.6372 2.50569 29.8181 2.21522C30.1624 1.6622 30.7485 1.11061 31.8683 1.06066L31.7792 -0.937355C29.8661 -0.852014 28.735 0.170703 28.1202 1.15816C27.8215 1.63793 27.6443 2.10584 27.5412 2.45097C27.4891 2.62508 27.4547 2.7723 27.4326 2.88009C27.4216 2.9341 27.4136 2.97859 27.408 3.012C27.4052 3.02873 27.403 3.04271 27.4014 3.05378C27.4005 3.05931 27.3998 3.06412 27.3993 3.06818C27.399 3.07021 27.3987 3.07205 27.3985 3.0737C27.3984 3.07453 27.3983 3.0753 27.3982 3.07603C27.3981 3.0764 27.3981 3.07691 27.398 3.07709C27.398 3.07759 27.3979 3.07808 28.3891 3.21025ZM31.8683 1.06066C33.3548 0.994342 35.6201 0.993957 37.5316 1.01088C38.4836 1.0193 39.3413 1.03194 39.9611 1.04248C40.2709 1.04775 40.5211 1.05249 40.6937 1.05591C40.78 1.05762 40.8469 1.05899 40.8922 1.05994C40.9148 1.06042 40.932 1.06079 40.9435 1.06104C40.9492 1.06116 40.9536 1.06125 40.9564 1.06132C40.9579 1.06135 40.9589 1.06137 40.9596 1.06139C40.96 1.06139 40.9602 1.0614 40.9604 1.0614C40.9605 1.0614 40.9605 1.06141 40.9606 1.06141C40.9606 1.06141 40.9606 1.06141 40.9827 0.0616513C41.0048 -0.938105 41.0047 -0.938106 41.0047 -0.938107C41.0046 -0.938108 41.0045 -0.93811 41.0044 -0.938112C41.0042 -0.938117 41.0039 -0.938124 41.0035 -0.938132C41.0027 -0.93815 41.0016 -0.938175 41.0001 -0.938208C40.997 -0.938275 40.9925 -0.938372 40.9866 -0.9385C40.9747 -0.938756 40.9571 -0.939132 40.9342 -0.939615C40.8882 -0.94058 40.8205 -0.941976 40.7333 -0.943702C40.5591 -0.947153 40.307 -0.951927 39.9951 -0.95723C39.3714 -0.967833 38.508 -0.980559 37.5493 -0.989045C35.6396 -1.00595 33.3254 -1.00633 31.7792 -0.937355L31.8683 1.06066ZM40.9827 0.0616513C40.6687 1.01106 40.6684 1.01099 40.6683 1.01093C40.6682 1.01092 40.668 1.01086 40.668 1.01083C40.6678 1.01077 40.6677 1.01073 40.6676 1.01071C40.6675 1.01067 40.6676 1.0107 40.6679 1.0108C40.6685 1.01101 40.67 1.01151 40.6723 1.01229C40.6769 1.01387 40.6849 1.0166 40.696 1.02046C40.7183 1.02819 40.7529 1.04045 40.7982 1.05708C40.8888 1.0904 41.0213 1.14098 41.1814 1.20766C41.5044 1.34217 41.9265 1.53664 42.3409 1.78033C42.7626 2.02833 43.1327 2.3021 43.3859 2.58187C43.6404 2.86319 43.7043 3.06754 43.7034 3.20364L45.7034 3.21687C45.7088 2.39614 45.3109 1.7285 44.8689 1.24005C44.4256 0.750058 43.8648 0.356275 43.3547 0.056335C42.8373 -0.247925 42.3269 -0.481792 41.9503 -0.638636C41.7606 -0.717636 41.6015 -0.778484 41.488 -0.820175C41.4312 -0.841047 41.3857 -0.857193 41.3532 -0.868485C41.337 -0.874133 41.324 -0.878573 41.3145 -0.881789C41.3098 -0.883397 41.3059 -0.884699 41.3029 -0.885694C41.3014 -0.886192 41.3002 -0.886612 41.2992 -0.886956C41.2986 -0.887128 41.2982 -0.88728 41.2978 -0.887414C41.2976 -0.88748 41.2973 -0.887566 41.2972 -0.887599C41.297 -0.88768 41.2967 -0.887756 40.9827 0.0616513ZM43.7034 3.20381C43.6973 4.16505 43.6973 10.5394 43.6988 16.6657C43.6996 19.7306 43.7007 22.7357 43.7017 24.9745C43.7022 26.0939 43.7026 27.0218 43.7029 27.6698C43.7031 27.9938 43.7032 28.2479 43.7033 28.4209C43.7033 28.5074 43.7034 28.5737 43.7034 28.6184C43.7034 28.6407 43.7034 28.6576 43.7034 28.6689C43.7034 28.6746 43.7034 28.6789 43.7034 28.6817C43.7034 28.6832 43.7034 28.6842 43.7034 28.6849C43.7034 28.6853 43.7034 28.6856 43.7034 28.6858C43.7034 28.6859 43.7034 28.686 44.7034 28.6855C45.7034 28.685 45.7034 28.6849 45.7034 28.6847C45.7034 28.6845 45.7034 28.6843 45.7034 28.6839C45.7034 28.6832 45.7034 28.6821 45.7034 28.6807C45.7034 28.6778 45.7034 28.6736 45.7034 28.6679C45.7034 28.6566 45.7034 28.6397 45.7034 28.6173C45.7034 28.5727 45.7033 28.5064 45.7033 28.4199C45.7032 28.2469 45.7031 27.9929 45.7029 27.6689C45.7026 27.0209 45.7022 26.093 45.7017 24.9737C45.7007 22.7349 45.6996 19.73 45.6988 16.6652C45.6973 10.5324 45.6973 4.16911 45.7034 3.2167L43.7034 3.20381ZM44.7034 28.6855C43.7091 28.5791 43.709 28.5797 43.709 28.5803C43.709 28.5805 43.7089 28.5811 43.7088 28.5815C43.7088 28.5824 43.7087 28.5833 43.7086 28.5843C43.7084 28.5863 43.7081 28.5885 43.7079 28.5909C43.7074 28.5957 43.7069 28.6014 43.7063 28.6079C43.7052 28.6209 43.7039 28.6373 43.7026 28.6569C43.6999 28.696 43.6972 28.7481 43.6958 28.8112C43.6931 28.937 43.6953 29.1094 43.714 29.3136C43.7507 29.7166 43.8539 30.2731 44.1318 30.8428C44.4145 31.4222 44.8761 32.0097 45.6064 32.4445C46.3327 32.8769 47.2622 33.1214 48.4255 33.1203L48.4235 31.1203C47.5423 31.1212 46.9844 30.9373 46.6296 30.7261C46.2789 30.5172 46.0658 30.2458 45.9293 29.966C45.7881 29.6765 45.7277 29.3735 45.7057 29.1319C45.6949 29.0137 45.694 28.9175 45.6954 28.8553C45.696 28.8244 45.6973 28.8026 45.698 28.7913C45.6984 28.7857 45.6987 28.7828 45.6987 28.7829C45.6987 28.7829 45.6986 28.7836 45.6985 28.7851C45.6984 28.7858 45.6983 28.7868 45.6982 28.7879C45.6981 28.7885 45.698 28.7891 45.698 28.7898C45.6979 28.7901 45.6979 28.7906 45.6979 28.7908C45.6978 28.7913 45.6978 28.7919 44.7034 28.6855ZM48.4254 33.1203C50.4691 33.1184 56.1212 33.1184 61.2632 33.1189C63.834 33.1191 66.277 33.1195 68.0774 33.1198C68.9775 33.1199 69.717 33.1201 70.2315 33.1202C70.4887 33.1202 70.6897 33.1203 70.8263 33.1203C70.8946 33.1203 70.9469 33.1203 70.9821 33.1203C70.9996 33.1203 71.013 33.1203 71.0219 33.1203C71.0263 33.1203 71.0297 33.1203 71.0319 33.1203C71.0331 33.1203 71.0339 33.1203 71.0345 33.1203C71.0348 33.1203 71.035 33.1203 71.0351 33.1203C71.0352 33.1203 71.0353 33.1203 71.0355 32.1203C71.0357 31.1203 71.0357 31.1203 71.0355 31.1203C71.0354 31.1203 71.0352 31.1203 71.0349 31.1203C71.0343 31.1203 71.0335 31.1203 71.0324 31.1203C71.0301 31.1203 71.0268 31.1203 71.0223 31.1203C71.0134 31.1203 71.0001 31.1203 70.9825 31.1203C70.9473 31.1203 70.8951 31.1203 70.8267 31.1203C70.6901 31.1203 70.4891 31.1202 70.2319 31.1202C69.7174 31.1201 68.9779 31.1199 68.0777 31.1198C66.2773 31.1195 63.8342 31.1191 61.2634 31.1189C56.122 31.1184 50.4686 31.1184 48.4235 31.1203L48.4254 33.1203ZM71.0355 32.1203C71.1055 33.1179 71.105 33.1179 71.1044 33.118C71.1043 33.118 71.1038 33.118 71.1035 33.118C71.1028 33.1181 71.1023 33.1181 71.1018 33.1181C71.1007 33.1182 71.0999 33.1183 71.0993 33.1183C71.0982 33.1184 71.0979 33.1184 71.0985 33.1183C71.0997 33.1183 71.1043 33.118 71.1121 33.1178C71.1278 33.1173 71.156 33.1167 71.1949 33.1172C71.2731 33.1181 71.3922 33.1232 71.5381 33.1409C71.8347 33.1768 72.2138 33.2612 72.5813 33.4458C72.9408 33.6265 73.2884 33.9017 73.5531 34.3351C73.8185 34.7697 74.0374 35.4239 74.0426 36.4192L76.0426 36.4089C76.0359 35.1176 75.748 34.0918 75.2599 33.2926C74.771 32.4921 74.1183 31.9798 73.4791 31.6587C72.8478 31.3415 72.2296 31.21 71.7785 31.1554C71.5506 31.1278 71.3583 31.119 71.2186 31.1173C71.1485 31.1165 71.0911 31.1175 71.0484 31.1188C71.027 31.1195 71.0093 31.1203 70.9954 31.121C70.9884 31.1214 70.9825 31.1217 70.9775 31.122C70.975 31.1222 70.9727 31.1223 70.9708 31.1224C70.9698 31.1225 70.9688 31.1226 70.968 31.1226C70.9675 31.1226 70.9669 31.1227 70.9667 31.1227C70.9661 31.1227 70.9655 31.1228 71.0355 32.1203ZM74.0426 36.4192C74.0544 38.7021 74.0544 48.7164 74.0514 58.1653C74.05 62.8885 74.0478 67.4689 74.0459 70.8685C74.045 72.5683 74.0441 73.9728 74.0435 74.9524C74.0432 75.4423 74.043 75.8258 74.0428 76.087C74.0427 76.2175 74.0427 76.3175 74.0426 76.3848C74.0426 76.4184 74.0426 76.4439 74.0426 76.461C74.0426 76.4695 74.0426 76.476 74.0426 76.4803C74.0426 76.4824 74.0426 76.484 74.0426 76.4851C74.0426 76.4856 74.0426 76.4861 74.0426 76.4863C74.0426 76.4866 74.0426 76.4867 75.0426 76.4874C76.0426 76.4881 76.0426 76.4879 76.0426 76.4877C76.0426 76.4874 76.0426 76.487 76.0426 76.4864C76.0426 76.4854 76.0426 76.4837 76.0426 76.4816C76.0426 76.4773 76.0426 76.4709 76.0426 76.4623C76.0426 76.4452 76.0426 76.4197 76.0426 76.3861C76.0427 76.3188 76.0427 76.2188 76.0428 76.0882C76.043 75.8271 76.0432 75.4435 76.0435 74.9537C76.0441 73.974 76.045 72.5694 76.0459 70.8696C76.0478 67.4699 76.05 62.8894 76.0514 58.1659C76.0544 48.7214 76.0544 38.6989 76.0426 36.4089L74.0426 36.4192ZM75.0426 76.4874C74.0637 76.6917 74.0635 76.6911 74.0634 76.6904C74.0634 76.6902 74.0632 76.6896 74.0631 76.6892C74.063 76.6884 74.0628 76.6877 74.0627 76.687C74.0624 76.6855 74.0622 76.6843 74.0619 76.6833C74.0615 76.6811 74.0613 76.6797 74.0611 76.679C74.0609 76.6776 74.0611 76.6788 74.0617 76.6825C74.0629 76.69 74.0655 76.7072 74.0682 76.7328C74.0736 76.7844 74.0792 76.8666 74.0761 76.9687C74.0697 77.177 74.028 77.4389 73.9013 77.6939C73.6921 78.1149 73.0856 78.8447 70.9981 78.9228L71.0729 80.9214C73.6728 80.8241 75.0698 79.8366 75.6923 78.584C75.9814 78.0023 76.0626 77.4384 76.0752 77.0301C76.0815 76.8239 76.0706 76.6501 76.0571 76.5228C76.0504 76.4589 76.0429 76.4059 76.0364 76.3656C76.0332 76.3454 76.0302 76.3283 76.0276 76.3145C76.0264 76.3076 76.0252 76.3015 76.0241 76.2963C76.0236 76.2936 76.0231 76.2912 76.0227 76.289C76.0225 76.2879 76.0223 76.2869 76.0221 76.2859C76.022 76.2854 76.0218 76.2847 76.0218 76.2845C76.0216 76.2838 76.0215 76.2831 75.0426 76.4874ZM70.9981 78.9228C68.6801 79.0095 51.8255 79.0098 35.5055 78.9878C27.3554 78.9769 19.3518 78.9604 13.3856 78.9467C10.4025 78.9399 7.92886 78.9337 6.20095 78.9293C5.337 78.927 4.6595 78.9252 4.19799 78.924C3.96723 78.9234 3.79048 78.9229 3.67141 78.9226C3.61188 78.9224 3.56677 78.9223 3.53655 78.9222C3.52144 78.9222 3.51005 78.9221 3.50244 78.9221C3.49863 78.9221 3.49577 78.9221 3.49386 78.9221C3.49291 78.9221 3.49219 78.9221 3.49171 78.9221C3.49123 78.9221 3.491 78.9221 3.48821 79.9221C3.48542 80.9221 3.48566 80.9221 3.48614 80.9221C3.48662 80.9221 3.48734 80.9221 3.48829 80.9221C3.49021 80.9221 3.49307 80.9221 3.49688 80.9221C3.5045 80.9221 3.5159 80.9221 3.53102 80.9222C3.56126 80.9223 3.60638 80.9224 3.66593 80.9226C3.78503 80.9229 3.96182 80.9234 4.19261 80.924C4.65419 80.9252 5.33177 80.927 6.1958 80.9293C7.92386 80.9337 10.3977 80.9399 13.381 80.9467C19.3476 80.9604 27.3519 80.9769 35.5028 80.9878C51.7846 81.0097 68.7037 81.01 71.0729 80.9214L70.9981 78.9228ZM3.48821 79.9221C3.30378 78.9392 3.30403 78.9392 3.30428 78.9391C3.30435 78.9391 3.30459 78.9391 3.30473 78.939C3.30502 78.939 3.30528 78.9389 3.30551 78.9389C3.30598 78.9388 3.30632 78.9388 3.30656 78.9387C3.30703 78.9386 3.30705 78.9386 3.30663 78.9387C3.30579 78.9388 3.3032 78.9393 3.29894 78.94C3.29042 78.9415 3.27531 78.9439 3.25434 78.9471C3.21227 78.9533 3.14738 78.9621 3.06534 78.9703C2.89919 78.987 2.67352 79.0006 2.43059 78.9905C1.88334 78.9678 1.51569 78.8365 1.35527 78.6655L-0.103244 80.034C0.621441 80.8063 1.68488 80.9612 2.34745 80.9888C2.70944 81.0038 3.03335 80.9836 3.26557 80.9603C3.38272 80.9485 3.47921 80.9356 3.54871 80.9253C3.58353 80.9201 3.61176 80.9155 3.63263 80.912C3.64307 80.9102 3.65169 80.9087 3.65839 80.9075C3.66173 80.9069 3.6646 80.9064 3.66698 80.906C3.66817 80.9057 3.66924 80.9055 3.67018 80.9054C3.67065 80.9053 3.67109 80.9052 3.6715 80.9051C3.67171 80.9051 3.67199 80.905 3.67209 80.905C3.67237 80.905 3.67264 80.9049 3.48821 79.9221ZM1.35527 78.6655C1.16329 78.4609 1.03568 78.0492 1.00642 77.5106C0.993205 77.2673 1.00247 77.0441 1.01542 76.8813C1.02183 76.8008 1.02895 76.7373 1.0341 76.6963C1.03667 76.6758 1.03872 76.6611 1.03993 76.6529C1.04053 76.6487 1.04091 76.6462 1.04104 76.6454C1.0411 76.645 1.04109 76.645 1.04102 76.6455C1.04098 76.6457 1.04093 76.6461 1.04086 76.6465C1.04082 76.6468 1.04078 76.647 1.04073 76.6473C1.04071 76.6474 1.04067 76.6477 1.04066 76.6477C1.04062 76.648 1.04058 76.6482 0.0535978 76.4874C-0.933386 76.3266 -0.933429 76.3268 -0.933473 76.3271C-0.933489 76.3272 -0.933534 76.3275 -0.933566 76.3277C-0.933631 76.3281 -0.9337 76.3285 -0.933774 76.329C-0.933922 76.3299 -0.934088 76.3309 -0.934272 76.3321C-0.934639 76.3344 -0.935077 76.3372 -0.93558 76.3405C-0.936585 76.347 -0.937848 76.3553 -0.939322 76.3655C-0.942268 76.3858 -0.946063 76.4132 -0.950315 76.4471C-0.958806 76.5147 -0.9692 76.6085 -0.97828 76.7227C-0.996298 76.9492 -1.00988 77.2647 -0.990633 77.6191C-0.95496 78.2758 -0.796358 79.2953 -0.103245 80.034L1.35527 78.6655ZM48.7098 49.436H56.7252V47.436H48.7098V49.436ZM56.7252 49.436C57.4084 49.436 57.9633 49.6658 58.4463 50.1488L59.8605 48.7346C59.0023 47.8763 57.9386 47.436 56.7252 47.436V49.436ZM58.4463 50.1488C58.9294 50.632 59.1593 51.187 59.1593 51.8704H61.1593C61.1593 50.6565 60.7186 49.5928 59.8605 48.7346L58.4463 50.1488ZM59.1593 51.8704V60.4584H61.1593V51.8704H59.1593ZM59.1593 60.4584C59.1593 61.1415 58.9293 61.6969 58.4463 62.18L59.8605 63.5941C60.7187 62.7359 61.1593 61.6719 61.1593 60.4584H59.1593ZM58.4464 62.1798C57.9632 62.6628 57.4082 62.8927 56.7252 62.8927V64.8927C57.9388 64.8927 59.0023 64.452 59.8603 63.5943L58.4464 62.1798ZM56.7252 62.8927H48.7098V64.8927H56.7252V62.8927ZM48.7098 62.8927C48.0268 62.8927 47.4718 62.6628 46.9886 62.1798L45.5747 63.5943C46.4327 64.452 47.4962 64.8927 48.7098 64.8927V62.8927ZM46.9888 62.18C46.5057 61.6969 46.2757 61.1415 46.2757 60.4584H44.2757C44.2757 61.6719 44.7164 62.7359 45.5745 63.5941L46.9888 62.18ZM46.2757 60.4584V51.8704H44.2757V60.4584H46.2757ZM46.2757 51.8704C46.2757 51.1869 46.5057 50.6319 46.9888 50.1488L45.5745 48.7346C44.7164 49.5928 44.2757 50.6565 44.2757 51.8704H46.2757ZM46.9888 50.1488C47.4718 49.6658 48.0266 49.436 48.7098 49.436V47.436C47.4965 47.436 46.4328 47.8763 45.5745 48.7346L46.9888 50.1488Z" fill="#F5B32F" mask="url(#path-1-inside-1_27_11701)"/>
</svg>
