<svg width="116" height="102" viewBox="0 0 116 102" fill="none" xmlns="http://www.w3.org/2000/svg">
<path d="M57.9336 29C86.6524 29 109.934 45.1177 109.934 65C109.934 84.8822 86.6524 101 57.9336 101C29.2148 101 5.93356 84.8822 5.93356 65C5.93356 62.9557 6.17968 60.9512 6.65253 59M57.9336 29C43.3849 29 30.2317 33.1363 20.7938 39.803M57.9336 29V13C58.6002 9.66665 61.9336 3.39998 69.9336 4.99998C79.9336 6.99998 77.9336 9.00002 89.9336 11M93.9336 41C97.2669 37.6667 105.534 33 111.934 41C118.334 49 111.934 56.3333 107.934 59M20.7938 39.803C17.8404 37.5353 10.3336 34.6 3.93356 41C-2.46645 47.4 3.07954 55.6667 6.65253 59M20.7938 39.803C13.517 44.9432 8.4488 51.5875 6.65253 59M89.9336 11C89.9336 3 96.6003 1 99.9336 1C103.267 1 109.934 3 109.934 11C109.934 19 103.267 21 99.9336 21C96.6003 21 89.9336 19 89.9336 11ZM37.9336 73C45.2669 77.6667 63.5336 84.2 77.9336 73M45.9336 57C45.9336 61.4183 42.3519 65 37.9336 65C33.5153 65 29.9336 61.4183 29.9336 57C29.9336 52.5817 33.5153 49 37.9336 49C42.3519 49 45.9336 52.5817 45.9336 57ZM85.9336 57C85.9336 61.4183 82.3519 65 77.9336 65C73.5153 65 69.9336 61.4183 69.9336 57C69.9336 52.5817 73.5153 49 77.9336 49C82.3519 49 85.9336 52.5817 85.9336 57Z" stroke="#F5B32F"/>
</svg>
