<svg width="31" height="31" viewBox="0 0 31 31" fill="none" xmlns="http://www.w3.org/2000/svg">
<path d="M13.1852 2.13156C13.8326 0.0558782 16.7704 0.0558781 17.4178 2.13156L19.1089 7.55305C19.5281 8.89684 20.7722 9.81204 22.1799 9.81204H27.8809C30.0064 9.81204 30.9136 12.5139 29.2187 13.7966L24.4182 17.4297C23.3365 18.2484 22.8846 19.6576 23.2886 20.9527L25.0768 26.6854C25.7188 28.7439 23.342 30.4145 21.6226 29.1133L17.2428 25.7986C16.0945 24.9295 14.5085 24.9295 13.3602 25.7986L8.98044 29.1133C7.26105 30.4145 4.88419 28.7439 5.52628 26.6854L7.31445 20.9527C7.7184 19.6576 7.26651 18.2484 6.18479 17.4297L1.38434 13.7966C-0.310561 12.5139 0.596595 9.81204 2.72218 9.81204H8.42314C9.83078 9.81204 11.0749 8.89684 11.4941 7.55305L13.1852 2.13156Z" stroke="#F5B32F"/>
</svg>
