<svg width="68" height="82" viewBox="0 0 68 82" fill="none" xmlns="http://www.w3.org/2000/svg">
<path d="M53.2927 13.1402C59.3536 19.2011 57.8384 25.262 57.3333 27.2823C56.5252 26.0701 51.6091 24.0835 49.2521 23.2417C49.7572 21.7265 48.747 19.7062 46.7267 18.1909C45.1105 16.9788 42.0126 18.0226 40.6658 18.696C35.615 21.7265 25.0084 28.1915 22.9881 29.8077C20.4627 31.828 17.9373 34.3534 20.4627 37.8889C22.483 40.7174 26.3553 40.0776 28.0389 39.4042C29.7225 38.2257 33.7967 35.5656 36.6252 34.3534C40.1607 32.8382 45.7165 32.3331 49.7572 33.8483C53.7978 35.3636 56.3232 37.8889 57.8384 44.4549C59.0506 49.7077 55.6497 54.0514 53.7978 55.5666L34.6049 67.6885C28.0389 72.2341 25.0084 71.7291 21.9779 71.224C20.2996 70.9443 17.64 69.705 15.2726 67.6885M53.2927 13.1402C47.2318 7.07926 39.1505 10.1097 33.0896 13.6453C30.6653 14.8574 21.3045 20.2113 16.9272 22.7366C14.7385 24.2519 10.5632 28.5955 11.3713 33.8483C12.3815 40.4143 17.9373 46.4752 20.9678 47.4854C23.9982 48.4955 30.0592 49.5057 39.1505 42.4346C44.2013 38.394 47.7368 41.4245 48.747 43.9499C49.7572 46.4752 49.2521 49.0006 48.2419 50.0108C47.4338 50.8189 41.5076 54.0514 38.6455 55.5666C35.4467 57.5869 28.847 61.8296 28.0389 62.6377C27.0287 63.6478 16.4221 64.658 19.4526 54.5565C16.2201 53.7483 13.7284 50.8526 12.8866 49.5057C11.5397 51.6944 9.25001 57.1829 10.8663 61.6275C11.7523 64.0641 13.4233 66.1133 15.2726 67.6885M53.2927 13.1402L59 6.66628M15.2726 67.6885L9.5 75.2259M9.5 75.2259C13.3598 78.615 17.9232 80.3936 21.9779 80.8204C30.0591 81.6711 34.0997 79.3052 36.6251 77.79L55.313 65.1631C57.8383 63.1428 62.8891 61.1225 64.9094 53.5463C66.9602 45.856 65.2461 38.7307 63.3942 35.8686C66.4246 29.3026 67.4348 28.2925 67.4348 21.2214C67.4348 16.7539 64.4129 10.9095 59 6.66628M9.5 75.2259C5.66712 71.8605 2.52803 66.907 1.26976 60.1123C0.596325 57.7553 0.764684 51.223 6.8256 43.9499C3.79518 38.394 -2.77089 28.2925 9.85606 17.6859L32.0794 3.54373C34.2681 2.0285 40.8678 -0.395865 49.7571 2.0285C53.3306 3.00309 56.434 4.65477 59 6.66628" stroke="#F5B32F"/>
</svg>
