<svg width="132" height="80" viewBox="0 0 132 80" fill="none" xmlns="http://www.w3.org/2000/svg">
<path d="M130.563 16.2795C130.122 17.4631 129.542 18.9428 128.849 20.5399C127.173 24.3975 124.862 28.8707 122.279 31.5393C118.035 35.9233 113.921 37.1537 111.328 37.9291C110.742 38.1042 110.234 38.2561 109.82 38.4158L110 38.8823L109.82 38.4158C109.354 38.5956 108.377 38.7635 107.007 38.8871C105.657 39.0087 103.98 39.0833 102.153 39.0985C98.4959 39.1289 94.2671 38.9212 90.8862 38.3884L90.8083 38.8823L90.8861 38.3884C87.5689 37.8658 83.9137 36.1832 80.009 33.6091C76.1087 31.0379 71.9895 27.5975 67.7472 23.5953C63.4686 19.5588 60.3859 17.5438 58.3505 16.5371C57.3321 16.0335 56.5739 15.7813 56.0577 15.6553C55.7997 15.5923 55.6022 15.5609 55.4633 15.5454C55.3938 15.5377 55.339 15.5339 55.2986 15.5322C55.2784 15.5313 55.2619 15.531 55.2489 15.5308L55.2321 15.5308L55.2257 15.5309L55.223 15.531L55.2217 15.531C55.2212 15.531 55.2206 15.531 55.2339 16.0296L55.2206 15.531L55.2163 15.5312L55.2163 15.5312L55.216 15.5312L55.2147 15.5312L55.2089 15.5314L55.1852 15.5322L55.0893 15.5351C55.0038 15.5376 54.8756 15.541 54.7053 15.5448C54.3648 15.5524 53.8563 15.5616 53.1865 15.5678C51.847 15.58 49.8624 15.58 47.2861 15.531C44.5734 15.4793 42.256 16.3708 39.9163 18.0149C37.999 19.3622 36.0503 21.2272 33.843 23.5088C36.0912 16.4965 39.0927 12.0972 42.0074 9.18278C44.7186 6.4718 47.3636 5.03117 49.349 3.9498C49.6981 3.7597 50.0267 3.5807 50.3317 3.40786L50.0853 2.97284L50.3318 3.40785C52.2626 2.31367 55.5058 1.34008 59.7284 0.844899C63.9408 0.350927 69.0942 0.337046 74.8246 1.13625C80.4643 1.92283 85.6455 5.1229 89.441 8.16391C91.3335 9.68019 92.8694 11.1472 93.9317 12.2346C94.4627 12.7781 94.8748 13.2262 95.1533 13.5375C95.2926 13.6931 95.3984 13.8145 95.469 13.8965C95.4927 13.924 95.5124 13.947 95.5281 13.9654C95.5358 13.9745 95.5425 13.9824 95.5483 13.9892L95.5676 14.0122L95.5687 14.0135L95.587 14.0369C95.6029 14.0571 95.6262 14.0864 95.6567 14.1243C95.7177 14.2 95.8075 14.3099 95.9251 14.4491C96.1603 14.7276 96.5066 15.1236 96.955 15.599C97.8512 16.5493 99.1577 17.8192 100.801 19.1001C104.08 21.6557 108.745 24.2896 114.197 24.4588C119.673 24.6287 124.237 21.9806 127.404 19.3363C128.689 18.2633 129.752 17.1841 130.563 16.2795ZM97.7972 56.6779C97.3565 57.8616 96.7766 59.3414 96.0829 60.9384C94.4072 64.7961 92.0962 69.2693 89.513 71.9379C85.2691 76.3219 81.1544 77.5524 78.5614 78.3279C77.9761 78.5029 77.4683 78.6547 77.0541 78.8144L77.0541 78.8145C76.5878 78.9943 75.6113 79.1622 74.2406 79.2857C72.8909 79.4074 71.2142 79.4819 69.3871 79.4971C65.7299 79.5275 61.5011 79.3199 58.1204 78.7871C54.8032 78.2644 51.1479 76.5819 47.2431 74.0077C43.3428 71.4366 39.2236 67.9961 34.9814 63.9939C30.7027 59.9574 27.62 57.9423 25.5847 56.9357C24.5663 56.432 23.808 56.1798 23.2919 56.0538C23.0338 55.9908 22.8364 55.9594 22.6975 55.9439C22.628 55.9361 22.5732 55.9324 22.5328 55.9306C22.5126 55.9298 22.4961 55.9294 22.4831 55.9293L22.4663 55.9293L22.4599 55.9294L22.4572 55.9294L22.4559 55.9295C22.4554 55.9295 22.4548 55.9295 22.468 56.428L22.4548 55.9295L22.4505 55.9296H22.4505L22.4502 55.9296L22.4488 55.9297L22.4431 55.9299L22.4194 55.9306L22.3235 55.9336C22.238 55.936 22.1097 55.9394 21.9395 55.9433C21.599 55.9509 21.0905 55.9601 20.4207 55.9662C19.0812 55.9785 17.0965 55.9785 14.5202 55.9294C11.8075 55.8777 9.49004 56.7692 7.15034 58.4134C5.23314 59.7607 3.28441 61.6257 1.07705 63.9073C3.32537 56.8951 6.32684 52.4958 9.2415 49.5813C11.9527 46.8702 14.5978 45.4296 16.5831 44.3482C16.9321 44.1581 17.2607 43.9792 17.5657 43.8063L17.3192 43.3713L17.5657 43.8063C19.4966 42.7122 22.7399 41.7386 26.9625 41.2435C31.1748 40.7495 36.3282 40.7356 42.0585 41.5349C47.6984 42.3214 52.8796 45.5215 56.675 48.5625C58.5675 50.0787 60.1034 51.5457 61.1657 52.6331C61.6966 53.1766 62.1087 53.6247 62.3872 53.936C62.5265 54.0916 62.6324 54.213 62.703 54.295C62.7383 54.336 62.7647 54.3671 62.7822 54.3877L62.8015 54.4107L62.8026 54.412L62.8209 54.4354C62.8368 54.4556 62.8601 54.4849 62.8906 54.5228C62.9516 54.5985 63.0414 54.7084 63.159 54.8476C63.3942 55.1261 63.7406 55.5222 64.1889 55.9976C65.0851 56.9478 66.3916 58.2177 68.0351 59.4986C71.3141 62.0543 75.9793 64.6883 81.4317 64.8574C86.9072 65.0273 91.4708 62.3791 94.6377 59.7348C95.9229 58.6618 96.9863 57.5826 97.7972 56.6779Z" stroke="#F5B32F"/>
</svg>
