<svg width="124" height="100" viewBox="0 0 124 100" fill="none" xmlns="http://www.w3.org/2000/svg">
<path d="M37.3737 77.7105C26.8496 77.5183 17.9149 70.7262 14.5285 61.3119C15.8367 61.5238 17.1717 61.6296 18.5384 61.6296C20.8845 61.6296 23.1634 61.3168 25.3161 60.7296L25.2835 59.7572C14.1383 57.5059 5.68695 47.767 5.44444 36.0047C8.73393 37.6922 12.4394 38.7057 16.3643 38.8329L18.1113 38.8896L16.6586 37.9176C10.0113 33.4703 5.65008 25.8936 5.65008 17.3109C5.65008 13.0359 6.7291 9.01321 8.64225 5.49397C21.1814 20.5595 39.706 30.4465 60.5771 31.4958L61.2399 31.5291L61.0892 30.8829C60.6661 29.0685 60.4406 27.1788 60.4406 25.242C60.4406 11.5741 71.5235 0.5 85.1921 0.5C92.3091 0.5 98.7383 3.49846 103.251 8.31165L103.44 8.51381L103.712 8.46025C109.058 7.40722 114.124 5.52368 118.736 2.95346C116.75 8.17085 113.028 12.5452 108.288 15.3858L108.605 16.3111C113.171 15.7628 117.541 14.6306 121.661 12.9681C118.477 17.4002 114.588 21.3126 110.171 24.501L109.954 24.6573L109.963 24.9242C110.002 25.9955 110.03 27.0918 110.03 28.1769C110.03 61.3175 84.8012 99.5 38.6975 99.5C25.3011 99.5 12.7836 95.793 2.08633 89.3628C3.38002 89.4613 4.68901 89.5092 6.01322 89.5092C17.9633 89.5092 28.9564 85.4416 37.6732 78.6038L38.7793 77.7362L37.3737 77.7105Z" stroke="#F5B32F"/>
</svg>
