<svg width="80" height="83" viewBox="0 0 80 83" fill="none" xmlns="http://www.w3.org/2000/svg">
<rect x="0.5" y="0.5" width="79" height="79" rx="4.5" stroke="#F5B32F"/>
<path d="M18.1875 48H17.6875V48.5H18.1875V48ZM18.1875 41V40.5H17.6875V41H18.1875ZM46 41H46.5V40.5H46V41ZM46 48V48.5H46.5V48H46ZM36.375 48V47.5H35.875V48H36.375ZM36.375 73V73.5H36.875V73H36.375ZM27.8125 73H27.3125V73.5H27.8125V73ZM27.8125 48H28.3125V47.5H27.8125V48ZM18.6875 48V41H17.6875V48H18.6875ZM18.1875 41.5H46V40.5H18.1875V41.5ZM45.5 41V48H46.5V41H45.5ZM46 47.5H36.375V48.5H46V47.5ZM35.875 48V73H36.875V48H35.875ZM36.375 72.5H27.8125V73.5H36.375V72.5ZM28.3125 73V48H27.3125V73H28.3125ZM27.8125 47.5H18.1875V48.5H27.8125V47.5ZM66.5195 51L66.0211 51.0399L66.0579 51.5H66.5195V51ZM65.3477 48.5625L65.0242 48.9438L65.027 48.9461L65.3477 48.5625ZM60.0039 48.0156L60.1776 48.4845L60.1823 48.4827L60.0039 48.0156ZM58.7539 48.875L58.3525 48.5768L58.3525 48.5768L58.7539 48.875ZM58.332 50.125L58.8313 50.152L58.8317 50.1441L58.8319 50.1361L58.332 50.125ZM58.5352 51.1719L58.0879 51.3955L58.0925 51.4045L58.0974 51.4134L58.5352 51.1719ZM59.3164 52L59.028 52.4086L59.0363 52.4141L59.3164 52ZM62.6445 53.1875L62.7493 52.6986L62.7452 52.6977L62.6445 53.1875ZM65.2695 53.75L65.1648 54.2389L65.1659 54.2392L65.2695 53.75ZM69.8164 55.2344L69.5973 55.6838L69.8164 55.2344ZM72.9102 57.4063L72.5499 57.753L72.5521 57.7552L72.9102 57.4063ZM74.6758 60.1875L74.2059 60.3584L74.2074 60.3625L74.6758 60.1875ZM75.2695 63.5625L75.7696 63.565L75.7695 63.5582L75.2695 63.5625ZM73.6914 68.9062L74.0983 69.1969L74.0983 69.1969L73.6914 68.9062ZM69.2227 72.2344L69.04 71.7689L69.0391 71.7693L69.2227 72.2344ZM54.9883 72.1406L54.803 72.605L54.8038 72.6053L54.9883 72.1406ZM50.1758 68.3437L49.7586 68.6194L49.7605 68.6223L50.1758 68.3437ZM48.457 61.75V61.25H47.9551L47.957 61.7519L48.457 61.75ZM56.707 61.75L57.2063 61.7234L57.1811 61.25H56.707V61.75ZM57.4414 64.2187L57.0234 64.4931L57.0234 64.4931L57.4414 64.2187ZM59.2852 65.7344L59.086 66.193L59.0882 66.1939L59.2852 65.7344ZM64.4727 65.9062L64.6448 66.3757L64.6448 66.3757L64.4727 65.9062ZM65.8945 64.9531L66.2859 65.2642L66.2859 65.2642L65.8945 64.9531ZM66.3945 63.5625L66.8944 63.5725L66.8946 63.5622L66.8944 63.5519L66.3945 63.5625ZM65.9102 62.2812L65.5208 62.5949L65.5256 62.6009L65.5305 62.6066L65.9102 62.2812ZM64.4102 61.2812L64.2115 61.7401L64.2174 61.7426L64.4102 61.2812ZM61.582 60.4375L61.6891 59.9491L61.6875 59.9487L61.582 60.4375ZM58.3945 59.75L58.2885 60.2386L58.2891 60.2388L58.3945 59.75ZM51.6914 56.6719L51.3588 57.0452L51.3613 57.0474L51.6914 56.6719ZM49.2695 50.75L49.7695 50.7521L49.7695 50.7474L49.2695 50.75ZM50.8945 45.4219L50.489 45.1294L50.4886 45.1299L50.8945 45.4219ZM55.4727 41.8437L55.2728 41.3854L55.2719 41.3858L55.4727 41.8437ZM68.9102 41.8594L68.7017 42.3139L68.7017 42.3139L68.9102 41.8594ZM73.2695 45.5156L72.8501 45.7878L72.8522 45.791L73.2695 45.5156ZM74.832 51V51.5H75.3345L75.332 50.9975L74.832 51ZM67.0179 50.9601C66.9256 49.8063 66.4848 48.8613 65.6683 48.1789L65.027 48.9461C65.6064 49.4304 65.9468 50.1103 66.0211 51.0399L67.0179 50.9601ZM65.6711 48.1812C64.8547 47.4885 63.6688 47.1875 62.207 47.1875V48.1875C63.5578 48.1875 64.4656 48.4698 65.0242 48.9438L65.6711 48.1812ZM62.207 47.1875C61.2758 47.1875 60.4752 47.3005 59.8256 47.5485L60.1823 48.4827C60.6784 48.2933 61.3466 48.1875 62.207 48.1875V47.1875ZM59.8302 47.5467C59.2055 47.7781 58.697 48.1132 58.3525 48.5768L59.1553 49.1732C59.3525 48.9076 59.6773 48.6698 60.1776 48.4845L59.8302 47.5467ZM58.3525 48.5768C58.0178 49.0274 57.8448 49.5451 57.8322 50.1139L58.8319 50.1361C58.8401 49.7674 58.9483 49.4518 59.1553 49.1732L58.3525 48.5768ZM57.8328 50.098C57.8077 50.5608 57.8889 50.9975 58.0879 51.3955L58.9824 50.9483C58.8689 50.7213 58.8146 50.4601 58.8313 50.152L57.8328 50.098ZM58.0974 51.4134C58.3087 51.7965 58.6275 52.1257 59.0281 52.4085L59.6047 51.5915C59.297 51.3742 59.0949 51.1514 58.9729 50.9303L58.0974 51.4134ZM59.0363 52.4141C59.4352 52.684 59.9291 52.9197 60.5071 53.1269L60.8445 52.1856C60.3183 51.9969 59.906 51.7952 59.5966 51.5859L59.0363 52.4141ZM60.5071 53.1269C61.0871 53.3349 61.7673 53.5177 62.5439 53.6773L62.7452 52.6977C62.001 52.5448 61.3686 52.3735 60.8445 52.1856L60.5071 53.1269ZM62.5398 53.6764L65.1648 54.2389L65.3743 53.2611L62.7493 52.6986L62.5398 53.6764ZM65.1659 54.2392C66.9077 54.608 68.3824 55.0914 69.5973 55.6838L70.0355 54.785C68.7295 54.1481 67.173 53.642 65.3731 53.2608L65.1659 54.2392ZM69.5973 55.6838C70.8158 56.278 71.7961 56.9698 72.5499 57.753L73.2704 57.0595C72.4201 56.176 71.3378 55.4199 70.0355 54.785L69.5973 55.6838ZM72.5521 57.7552C73.3071 58.5298 73.8563 59.3969 74.2059 60.3584L75.1457 60.0166C74.7453 58.9156 74.1174 57.9285 73.2682 57.0573L72.5521 57.7552ZM74.2074 60.3625C74.5703 61.3336 74.7596 62.4001 74.7696 63.5668L75.7695 63.5582C75.7587 62.2874 75.552 61.1039 75.1441 60.0125L74.2074 60.3625ZM74.7695 63.56C74.7595 65.5793 74.2562 67.2553 73.2845 68.6156L74.0983 69.1969C75.2099 67.6405 75.7587 65.754 75.7695 63.565L74.7695 63.56ZM73.2845 68.6156C72.3077 69.9832 70.9023 71.038 69.04 71.7689L69.4053 72.6998C71.418 71.9099 72.9918 70.746 74.0983 69.1969L73.2845 68.6156ZM69.0391 71.7693C67.1854 72.5007 64.9334 72.875 62.2695 72.875V73.875C65.0224 73.875 67.4057 73.4888 69.4062 72.6995L69.0391 71.7693ZM62.2695 72.875C59.5364 72.875 57.1744 72.4705 55.1728 71.6759L54.8038 72.6053C56.948 73.4565 59.4402 73.875 62.2695 73.875V72.875ZM55.1736 71.6762C53.1969 70.8875 51.6762 69.6831 50.591 68.0652L49.7605 68.6223C50.967 70.4211 52.6547 71.7479 54.803 72.605L55.1736 71.6762ZM50.593 68.0682C49.5251 66.4517 48.9672 64.3566 48.957 61.7481L47.957 61.7519C47.9677 64.4976 48.5556 66.7983 49.7586 68.6193L50.593 68.0682ZM48.457 62.25H56.707V61.25H48.457V62.25ZM56.2077 61.7766C56.2634 62.8239 56.5274 63.7372 57.0234 64.4931L57.8594 63.9444C57.4805 63.3669 57.2548 62.6345 57.2063 61.7234L56.2077 61.7766ZM57.0234 64.4931C57.5188 65.2479 58.2127 65.8138 59.086 66.193L59.4843 65.2757C58.7743 64.9675 58.2391 64.5229 57.8594 63.9444L57.0234 64.4931ZM59.0882 66.1939C59.9667 66.5704 60.99 66.75 62.1445 66.75V65.75C61.0908 65.75 60.2078 65.5858 59.4821 65.2748L59.0882 66.1939ZM62.1445 66.75C63.109 66.75 63.9477 66.6313 64.6448 66.3757L64.3005 65.4368C63.7477 65.6395 63.0342 65.75 62.1445 65.75V66.75ZM64.6448 66.3757C65.332 66.1237 65.8918 65.7601 66.2859 65.2642L65.5031 64.642C65.2514 64.9587 64.8633 65.2305 64.3005 65.4368L64.6448 66.3757ZM66.2859 65.2642C66.6773 64.7719 66.8818 64.2024 66.8944 63.5725L65.8946 63.5525C65.8864 63.9642 65.7576 64.3219 65.5031 64.642L66.2859 65.2642ZM66.8944 63.5519C66.8816 62.9491 66.6792 62.4102 66.2898 61.9559L65.5305 62.6066C65.7661 62.8815 65.8866 63.1967 65.8946 63.5731L66.8944 63.5519ZM66.2995 61.9676C65.9237 61.501 65.338 61.1271 64.603 60.8199L64.2174 61.7426C64.8781 62.0187 65.2925 62.3115 65.5208 62.5949L66.2995 61.9676ZM64.6088 60.8224C63.8693 60.5023 62.8918 60.2128 61.6891 59.9491L61.4749 60.9259C62.6473 61.183 63.5552 61.456 64.2115 61.7401L64.6088 60.8224ZM61.6875 59.9487L58.5 59.2612L58.2891 60.2388L61.4766 60.9263L61.6875 59.9487ZM58.5005 59.2614C55.7237 58.659 53.5753 57.6621 52.0215 56.2963L51.3613 57.0474C53.0783 58.5566 55.3987 59.6118 58.2885 60.2386L58.5005 59.2614ZM52.024 56.2986C50.5225 54.9606 49.7596 53.1323 49.7695 50.7521L48.7695 50.7479C48.7586 53.3677 49.6103 55.4873 51.3588 57.0452L52.024 56.2986ZM49.7695 50.7474C49.7596 48.8124 50.2737 47.1415 51.3005 45.7138L50.4886 45.1299C49.3279 46.7439 48.7586 48.6251 48.7695 50.7526L49.7695 50.7474ZM51.3001 45.7143C52.3456 44.2644 53.7968 43.1246 55.6735 42.3017L55.2719 41.3858C53.2527 42.2712 51.6518 43.5169 50.489 45.1294L51.3001 45.7143ZM55.6726 42.3021C57.5573 41.48 59.7321 41.0625 62.207 41.0625V40.0625C59.6195 40.0625 57.3047 40.4992 55.2728 41.3854L55.6726 42.3021ZM62.207 41.0625C64.7356 41.0625 66.8957 41.4857 68.7017 42.3139L69.1186 41.4049C67.1538 40.5039 64.8451 40.0625 62.207 40.0625V41.0625ZM68.7017 42.3139C70.5104 43.1433 71.8863 44.3028 72.8501 45.7878L73.6889 45.2434C72.6111 43.5827 71.0807 42.3047 69.1186 41.4049L68.7017 42.3139ZM72.8522 45.791C73.8238 47.2631 74.322 48.9939 74.332 51.0025L75.332 50.9975C75.3212 48.8186 74.7778 46.8931 73.6868 45.2402L72.8522 45.791ZM74.832 50.5H66.5195V51.5H74.832V50.5Z" fill="#F5B32F"/>
</svg>
