<svg width="83" height="82" viewBox="0 0 83 82" fill="none" xmlns="http://www.w3.org/2000/svg">
<path d="M24.3006 31.7591L52.0343 6.54673C52.8747 5.70632 54.7572 4.73144 55.564 7.55523C55.564 10.7824 55.564 22.3465 55.564 27.7251L37.9153 41.3398L55.564 54.9545V75.1244C55.3959 76.1329 54.4546 77.7465 52.0343 76.1329C50.0173 74.1159 17.9135 44.7015 2.11374 30.2464C1.27333 29.406 0.09675 27.2209 2.11374 25.2039C4.13073 23.1869 5.64344 22.0103 6.14767 21.6742C6.98808 20.8337 9.274 19.6572 11.6944 21.6742C14.1148 23.6911 21.107 29.2379 24.3006 31.7591ZM21.2751 53.4418L11.6944 61.0055C10.854 61.8459 8.6689 63.1233 6.65191 61.5097C4.63492 59.8961 2.78601 58.1481 2.11368 57.4757C1.27327 56.6353 0.0966942 54.4503 2.11368 52.4333C4.13068 50.4163 9.00507 45.878 11.1901 43.8611L21.2751 53.4418ZM59.5979 80.6711C60.1022 81.0073 61.5141 81.3771 63.1276 80.1669C64.7412 78.9567 74.2211 74.6202 78.7593 72.6032C79.7678 72.0989 81.7848 70.2836 81.7848 67.0564C81.7848 63.8293 81.7848 31.0868 81.7848 15.1189C81.7848 13.9424 81.1797 11.2867 78.7593 10.0765C76.3389 8.86626 64.9765 3.52124 59.5979 1C60.2702 1.16808 61.6148 2.21019 61.6148 5.03398C61.6148 7.85777 61.6148 54.6183 61.6148 77.6456C61.6149 78.1499 61.2116 79.4609 59.5979 80.6711Z" stroke="#F5B32F"/>
</svg>
