<svg width="80" height="80" viewBox="0 0 80 80" fill="none" xmlns="http://www.w3.org/2000/svg">
<path d="M7.23978 57.4187H6.73978V57.9187V68.7783V69.2783H7.23978H54.4795H54.9795V68.7783V57.9187V57.4187H54.4795H7.23978ZM7.73978 68.2783V58.4187H53.9795V68.2783H7.73978ZM0.5 10.858V10.858C0.499903 7.9922 1.50729 5.56009 3.53367 3.5337C5.56006 1.5074 7.99218 0.5 10.8579 0.5H69.1418C72.0079 0.5 74.4397 1.5074 76.4662 3.53368C78.4925 5.56007 79.4998 7.99219 79.4998 10.858V69.142C79.4998 72.0078 78.4925 74.4399 76.4663 76.4661C74.4397 78.4924 72.0078 79.5 69.1418 79.5H10.8579C7.99221 79.5 5.56008 78.4924 3.53367 76.4661C1.5073 74.4399 0.499903 72.0077 0.5 69.142V10.858Z" stroke="#F5B32F"/>
<path d="M13.7817 40.1414L13.8875 40.5H14.2613H21.8181H22.1887L22.2965 40.1455L26.8749 25.0945L31.4534 40.1455L31.5612 40.5H31.9318H39.4886H39.8624L39.9682 40.1414L48.5477 11.0505L48.7369 10.4091H48.0681H39.2613H38.86L38.7731 10.8009L35.1388 27.2076L30.8245 10.7821L30.7265 10.4091H30.3409H23.409H23.0237L22.9255 10.7817L18.6111 27.1557L14.9767 10.8006L14.8897 10.4091H14.4886H5.68176H5.01301L5.20218 11.0505L13.7817 40.1414ZM65.3396 20.0399L65.3764 20.5H65.838H73.3948H73.8973L73.8948 19.9975C73.8849 18.0095 73.3892 16.2507 72.3926 14.7402C71.4076 13.2233 70.0098 12.0567 68.2197 11.2358C66.4263 10.4135 64.3208 10.0114 61.9176 10.0114C59.5602 10.0114 57.4494 10.4092 55.5955 11.2178L55.5946 11.2182C53.7526 12.026 52.2903 13.1632 51.2279 14.6365L51.2275 14.637C50.1667 16.1121 49.6467 17.831 49.6562 19.7728C49.6467 22.1643 50.425 24.1037 52.0253 25.5296L52.0278 25.5318C53.5961 26.9103 55.7134 27.8722 58.3457 28.4432L58.3462 28.4433L61.2423 29.0679C61.2425 29.068 61.2427 29.068 61.243 29.0681C62.307 29.3015 63.129 29.5489 63.7218 29.8054L63.7218 29.8055L63.7276 29.8079C64.3249 30.0575 64.6938 30.32 64.8947 30.5693L64.8994 30.5753L64.9044 30.5811C65.1094 30.8203 65.2152 31.0935 65.2242 31.4208C65.215 31.7808 65.1014 32.093 64.8784 32.3735C64.6561 32.6532 64.311 32.8962 63.8051 33.0817C63.309 33.2636 62.6662 33.3636 61.8607 33.3636C60.908 33.3636 60.1121 33.2153 59.4595 32.9358C58.822 32.6588 58.3429 32.2603 58.0032 31.7427C57.664 31.2258 57.4606 30.5682 57.4169 29.7462L57.3917 29.2727H56.9176H49.4176H48.9156L48.9176 29.7747C48.9273 32.2769 49.4631 34.3778 50.5629 36.0426L50.5648 36.0456C51.6671 37.689 53.2089 38.9008 55.1698 39.6831L55.1706 39.6835C57.1263 40.4599 59.3978 40.8409 61.9744 40.8409C64.4806 40.8409 66.653 40.4894 68.4781 39.7694C70.3146 39.0486 71.7529 37.9856 72.7648 36.569C73.7817 35.1452 74.2827 33.4207 74.2926 31.4229L74.2925 31.4162C74.2826 30.2567 74.0942 29.1761 73.7217 28.1788C73.3556 27.1731 72.782 26.2716 72.007 25.4762C71.2297 24.6689 70.2415 23.9789 69.0543 23.4C67.863 22.8191 66.4443 22.358 64.8056 22.0109C64.8055 22.0109 64.8053 22.0109 64.8052 22.0108L62.4201 21.4997L62.4159 21.4989C61.7408 21.3601 61.1681 21.2049 60.6942 21.035C60.2206 20.8652 59.8508 20.6843 59.574 20.4977C59.3049 20.3071 59.129 20.1133 59.0222 19.9235C58.926 19.727 58.8796 19.5004 58.8941 19.2315L58.8945 19.2236L58.8947 19.2156C58.902 18.8895 58.9974 18.6118 59.1797 18.3663C59.3523 18.134 59.6393 17.9221 60.0884 17.7558L60.0931 17.754C60.5371 17.5845 61.1385 17.4886 61.9176 17.4886C63.1405 17.4886 63.9531 17.7444 64.4492 18.1653L64.452 18.1677C64.9679 18.5989 65.2728 19.205 65.3396 20.0399Z" stroke="#F5B32F"/>
</svg>
