<svg width="128" height="100" viewBox="0 0 128 100" fill="none" xmlns="http://www.w3.org/2000/svg">
<path d="M18.7876 3.90372L18.7884 3.9036C28.7515 2.41447 45.1318 0.5 63.6364 0.5C82.1413 0.5 98.5216 2.41447 108.484 3.9036L108.485 3.90372C116.436 5.07904 122.769 11.3037 124.188 19.299L124.188 19.3018C125.498 26.4472 126.773 36.893 126.773 50C126.773 63.07 125.498 73.5161 124.224 80.6987C122.772 88.6845 116.454 94.9023 108.521 96.0909H108.486L108.449 96.0964C98.4498 97.5859 82.0339 99.5 63.6364 99.5C45.2384 99.5 28.787 97.5859 18.7881 96.0964C10.8354 94.8856 4.5028 88.6948 3.04889 80.6995C1.77511 73.5527 0.5 63.1063 0.5 50C0.5 36.8936 1.77513 26.4475 3.04892 19.3001C4.50328 11.3033 10.8374 5.07895 18.7876 3.90372Z" stroke="#F5B32F"/>
<path d="M42 24.0192L87 50L42 75.9808L42 24.0192Z" stroke="#F5B32F"/>
</svg>
